<svg width="473" height="473" viewBox="0 0 473 473" fill="none" xmlns="http://www.w3.org/2000/svg">
<path d="M148.236 455.82C146.713 455.209 145.195 454.581 143.682 453.936L19.0317 329.286C18.3871 327.773 17.7589 326.255 17.1473 324.731L148.236 455.82Z" fill="url(#paint0_linear_1_158)"/>
<path d="M186.669 467.553C185.524 467.308 184.38 467.054 183.238 466.792L6.17612 289.73C5.91361 288.588 5.65968 287.444 5.41434 286.298L186.669 467.553Z" fill="url(#paint1_linear_1_158)"/>
<path d="M217.908 472.093C216.936 472.017 215.965 471.935 214.993 471.848L1.12012 257.974C1.03245 257.003 0.950793 256.031 0.875135 255.059L217.908 472.093Z" fill="url(#paint2_linear_1_158)"/>
<path d="M245.161 472.645C244.298 472.677 243.435 472.704 242.573 472.727L0.240763 230.395C0.263416 229.532 0.290752 228.67 0.322816 227.807L245.161 472.645Z" fill="url(#paint3_linear_1_158)"/>
<path d="M269.673 470.457C268.89 470.568 268.107 470.675 267.324 470.778L2.18933 205.644C2.29249 204.86 2.39955 204.077 2.51056 203.295L269.673 470.457Z" fill="url(#paint4_linear_1_158)"/>
<path d="M292.082 466.167C291.364 466.341 290.644 466.511 289.924 466.678L6.28916 183.044C6.45628 182.324 6.62683 181.604 6.8008 180.885L292.082 466.167Z" fill="url(#paint5_linear_1_158)"/>
<path d="M312.764 460.149C312.099 460.376 311.433 460.6 310.766 460.821L12.147 162.202C12.368 161.535 12.592 160.869 12.819 160.204L312.764 460.149Z" fill="url(#paint6_linear_1_158)"/>
<path d="M331.956 452.641C331.338 452.915 330.719 453.186 330.099 453.454L19.5138 142.869C19.7819 142.249 20.0528 141.629 20.3266 141.011L331.956 452.641Z" fill="url(#paint7_linear_1_158)"/>
<path d="M349.819 443.804C349.244 444.12 348.667 444.433 348.089 444.744L28.2235 124.878C28.5343 124.301 28.8476 123.724 29.1636 123.148L349.819 443.804Z" fill="url(#paint8_linear_1_158)"/>
<path d="M366.463 433.748C365.926 434.103 365.389 434.455 364.851 434.806L38.162 108.117C38.5122 107.579 38.865 107.041 39.2201 106.505L366.463 433.748Z" fill="url(#paint9_linear_1_158)"/>
<path d="M381.963 422.548C381.464 422.94 380.964 423.33 380.462 423.717L49.2502 92.5053C49.6378 92.004 50.0278 91.5039 50.42 91.0051L381.963 422.548Z" fill="url(#paint10_linear_1_158)"/>
<path d="M396.371 410.256C395.908 410.684 395.444 411.11 394.978 411.534L61.4341 77.9893C61.8576 77.5238 62.2834 77.0595 62.7113 76.5965L396.371 410.256Z" fill="url(#paint11_linear_1_158)"/>
<path d="M409.721 396.906C409.294 397.368 408.865 397.829 408.433 398.289L74.679 64.5343C75.1384 64.1029 75.5992 63.6736 76.0612 63.2466L409.721 396.906Z" fill="url(#paint12_linear_1_158)"/>
<path d="M422.012 382.498C421.621 382.995 421.228 383.492 420.832 383.987L88.9805 52.136C89.4757 51.7401 89.9722 51.3465 90.4698 50.9553L422.012 382.498Z" fill="url(#paint13_linear_1_158)"/>
<path d="M433.212 366.998C432.858 367.532 432.502 368.066 432.143 368.598L104.369 40.8249C104.902 40.466 105.435 40.1095 105.97 39.7554L433.212 366.998Z" fill="url(#paint14_linear_1_158)"/>
<path d="M443.269 350.354C442.954 350.928 442.637 351.501 442.317 352.072L120.895 30.6511C121.467 30.3311 122.04 30.0137 122.613 29.6989L443.269 350.354Z" fill="url(#paint15_linear_1_158)"/>
<path d="M452.106 332.492C451.833 333.107 451.558 333.722 451.28 334.336L138.632 21.6879C139.246 21.4098 139.86 21.1344 140.476 20.8618L452.106 332.492Z" fill="url(#paint16_linear_1_158)"/>
<path d="M459.613 313.299C459.387 313.961 459.158 314.622 458.926 315.282L157.685 14.0412C158.345 13.8092 159.007 13.5802 159.668 13.3543L459.613 313.299Z" fill="url(#paint17_linear_1_158)"/>
<path d="M465.632 292.618C465.459 293.332 465.282 294.046 465.103 294.759L178.209 7.86489C178.922 7.68524 179.636 7.50899 180.35 7.33608L465.632 292.618Z" fill="url(#paint18_linear_1_158)"/>
<path d="M469.922 270.208C469.812 270.984 469.698 271.76 469.58 272.536L200.432 3.38789C201.207 3.27 201.983 3.15599 202.76 3.04584L469.922 270.208Z" fill="url(#paint19_linear_1_158)"/>
<path d="M472.11 245.696C472.078 246.55 472.041 247.403 472.001 248.257L224.711 0.967114C225.564 0.926177 226.418 0.889825 227.272 0.858098L472.11 245.696Z" fill="url(#paint20_linear_1_158)"/>
<path d="M471.557 218.444C471.632 219.402 471.701 220.361 471.764 221.32L251.648 1.2041C252.607 1.26706 253.566 1.33582 254.524 1.41042L471.557 218.444Z" fill="url(#paint21_linear_1_158)"/>
<path d="M467.018 187.205C467.258 188.325 467.49 189.447 467.713 190.57L282.398 5.25437C283.521 5.47789 284.643 5.70965 285.763 5.94962L467.018 187.205Z" fill="url(#paint22_linear_1_158)"/>
<path d="M455.285 148.772C455.869 150.226 456.438 151.685 456.992 153.148L319.819 15.976C321.283 16.5298 322.742 17.0987 324.196 17.6826L455.285 148.772Z" fill="url(#paint23_linear_1_158)"/>
<path d="M380.536 49.9926C388.366 56.0606 395.902 62.6888 403.09 69.8772C410.279 77.0656 416.907 84.6019 422.975 92.4319L380.536 49.9926Z" fill="url(#paint24_linear_1_158)"/>
<defs>
<linearGradient id="paint0_linear_1_158" x1="279.98" y1="514.5" x2="283.98" y2="67.4999" gradientUnits="userSpaceOnUse">
<stop stop-color="#E1EDF7"/>
<stop offset="1" stop-color="#F4FAFF"/>
</linearGradient>
<linearGradient id="paint1_linear_1_158" x1="279.98" y1="514.5" x2="283.98" y2="67.4999" gradientUnits="userSpaceOnUse">
<stop stop-color="#E1EDF7"/>
<stop offset="1" stop-color="#F4FAFF"/>
</linearGradient>
<linearGradient id="paint2_linear_1_158" x1="279.98" y1="514.5" x2="283.98" y2="67.4999" gradientUnits="userSpaceOnUse">
<stop stop-color="#E1EDF7"/>
<stop offset="1" stop-color="#F4FAFF"/>
</linearGradient>
<linearGradient id="paint3_linear_1_158" x1="279.98" y1="514.5" x2="283.98" y2="67.4999" gradientUnits="userSpaceOnUse">
<stop stop-color="#E1EDF7"/>
<stop offset="1" stop-color="#F4FAFF"/>
</linearGradient>
<linearGradient id="paint4_linear_1_158" x1="279.98" y1="514.5" x2="283.98" y2="67.4999" gradientUnits="userSpaceOnUse">
<stop stop-color="#E1EDF7"/>
<stop offset="1" stop-color="#F4FAFF"/>
</linearGradient>
<linearGradient id="paint5_linear_1_158" x1="279.98" y1="514.5" x2="283.98" y2="67.4999" gradientUnits="userSpaceOnUse">
<stop stop-color="#E1EDF7"/>
<stop offset="1" stop-color="#F4FAFF"/>
</linearGradient>
<linearGradient id="paint6_linear_1_158" x1="279.98" y1="514.5" x2="283.98" y2="67.4999" gradientUnits="userSpaceOnUse">
<stop stop-color="#E1EDF7"/>
<stop offset="1" stop-color="#F4FAFF"/>
</linearGradient>
<linearGradient id="paint7_linear_1_158" x1="279.98" y1="514.5" x2="283.98" y2="67.4999" gradientUnits="userSpaceOnUse">
<stop stop-color="#E1EDF7"/>
<stop offset="1" stop-color="#F4FAFF"/>
</linearGradient>
<linearGradient id="paint8_linear_1_158" x1="279.98" y1="514.5" x2="283.98" y2="67.4999" gradientUnits="userSpaceOnUse">
<stop stop-color="#E1EDF7"/>
<stop offset="1" stop-color="#F4FAFF"/>
</linearGradient>
<linearGradient id="paint9_linear_1_158" x1="279.98" y1="514.5" x2="283.98" y2="67.4999" gradientUnits="userSpaceOnUse">
<stop stop-color="#E1EDF7"/>
<stop offset="1" stop-color="#F4FAFF"/>
</linearGradient>
<linearGradient id="paint10_linear_1_158" x1="279.98" y1="514.5" x2="283.98" y2="67.4999" gradientUnits="userSpaceOnUse">
<stop stop-color="#E1EDF7"/>
<stop offset="1" stop-color="#F4FAFF"/>
</linearGradient>
<linearGradient id="paint11_linear_1_158" x1="279.98" y1="514.5" x2="283.98" y2="67.4999" gradientUnits="userSpaceOnUse">
<stop stop-color="#E1EDF7"/>
<stop offset="1" stop-color="#F4FAFF"/>
</linearGradient>
<linearGradient id="paint12_linear_1_158" x1="279.98" y1="514.5" x2="283.98" y2="67.4999" gradientUnits="userSpaceOnUse">
<stop stop-color="#E1EDF7"/>
<stop offset="1" stop-color="#F4FAFF"/>
</linearGradient>
<linearGradient id="paint13_linear_1_158" x1="279.98" y1="514.5" x2="283.98" y2="67.4999" gradientUnits="userSpaceOnUse">
<stop stop-color="#E1EDF7"/>
<stop offset="1" stop-color="#F4FAFF"/>
</linearGradient>
<linearGradient id="paint14_linear_1_158" x1="279.98" y1="514.5" x2="283.98" y2="67.4999" gradientUnits="userSpaceOnUse">
<stop stop-color="#E1EDF7"/>
<stop offset="1" stop-color="#F4FAFF"/>
</linearGradient>
<linearGradient id="paint15_linear_1_158" x1="279.98" y1="514.5" x2="283.98" y2="67.4999" gradientUnits="userSpaceOnUse">
<stop stop-color="#E1EDF7"/>
<stop offset="1" stop-color="#F4FAFF"/>
</linearGradient>
<linearGradient id="paint16_linear_1_158" x1="279.98" y1="514.5" x2="283.98" y2="67.4999" gradientUnits="userSpaceOnUse">
<stop stop-color="#E1EDF7"/>
<stop offset="1" stop-color="#F4FAFF"/>
</linearGradient>
<linearGradient id="paint17_linear_1_158" x1="279.98" y1="514.5" x2="283.98" y2="67.4999" gradientUnits="userSpaceOnUse">
<stop stop-color="#E1EDF7"/>
<stop offset="1" stop-color="#F4FAFF"/>
</linearGradient>
<linearGradient id="paint18_linear_1_158" x1="279.98" y1="514.5" x2="283.98" y2="67.4999" gradientUnits="userSpaceOnUse">
<stop stop-color="#E1EDF7"/>
<stop offset="1" stop-color="#F4FAFF"/>
</linearGradient>
<linearGradient id="paint19_linear_1_158" x1="279.98" y1="514.5" x2="283.98" y2="67.4999" gradientUnits="userSpaceOnUse">
<stop stop-color="#E1EDF7"/>
<stop offset="1" stop-color="#F4FAFF"/>
</linearGradient>
<linearGradient id="paint20_linear_1_158" x1="279.98" y1="514.5" x2="283.98" y2="67.4999" gradientUnits="userSpaceOnUse">
<stop stop-color="#E1EDF7"/>
<stop offset="1" stop-color="#F4FAFF"/>
</linearGradient>
<linearGradient id="paint21_linear_1_158" x1="279.98" y1="514.5" x2="283.98" y2="67.4999" gradientUnits="userSpaceOnUse">
<stop stop-color="#E1EDF7"/>
<stop offset="1" stop-color="#F4FAFF"/>
</linearGradient>
<linearGradient id="paint22_linear_1_158" x1="279.98" y1="514.5" x2="283.98" y2="67.4999" gradientUnits="userSpaceOnUse">
<stop stop-color="#E1EDF7"/>
<stop offset="1" stop-color="#F4FAFF"/>
</linearGradient>
<linearGradient id="paint23_linear_1_158" x1="279.98" y1="514.5" x2="283.98" y2="67.4999" gradientUnits="userSpaceOnUse">
<stop stop-color="#E1EDF7"/>
<stop offset="1" stop-color="#F4FAFF"/>
</linearGradient>
<linearGradient id="paint24_linear_1_158" x1="279.98" y1="514.5" x2="283.98" y2="67.4999" gradientUnits="userSpaceOnUse">
<stop stop-color="#E1EDF7"/>
<stop offset="1" stop-color="#F4FAFF"/>
</linearGradient>
</defs>
</svg>
