<svg width="21" height="20" viewBox="0 0 21 20" fill="none" xmlns="http://www.w3.org/2000/svg">
<path d="M15.2815 19.9999C8.50567 20.2291 -3.70098 8.12074 1.96651 1.55574L2.92484 0.722408C3.40994 0.253462 4.06019 -0.00561091 4.73486 0.00125125C5.40953 0.00811341 6.05437 0.280359 6.52984 0.759075C6.55553 0.785245 6.57947 0.813083 6.6015 0.842408L8.1015 2.79157C8.55735 3.27394 8.81064 3.91289 8.80909 4.57657C8.80754 5.24025 8.55127 5.87801 8.09317 6.35824L7.12817 7.57158C7.66243 8.86913 8.44768 10.0484 9.43885 11.0417C10.43 12.035 11.6076 12.8228 12.904 13.3599L14.124 12.3891C14.6105 11.9423 15.2467 11.6939 15.9072 11.693C16.5677 11.6921 17.2046 11.9387 17.6923 12.3841L19.6423 13.8841C19.6715 13.906 19.6993 13.9297 19.7257 13.9549C20.2066 14.4402 20.4764 15.0958 20.4764 15.7791C20.4764 16.4623 20.2066 17.1179 19.7257 17.6032L18.9665 18.4782C18.485 18.965 17.9108 19.3505 17.2779 19.6118C16.645 19.8732 15.9662 20.0051 15.2815 19.9999ZM4.70567 1.66657C4.58592 1.66648 4.46731 1.68998 4.35664 1.73574C4.24597 1.7815 4.1454 1.84861 4.06067 1.93324L3.10151 2.76657C-1.60349 8.42324 12.794 22.0191 17.7465 17.3399L18.5065 16.4641C18.5968 16.3837 18.6704 16.2862 18.7229 16.1772C18.7754 16.0683 18.8058 15.95 18.8124 15.8292C18.8189 15.7085 18.8016 15.5876 18.7612 15.4736C18.7209 15.3596 18.6584 15.2547 18.5773 15.1649L16.6382 13.6757C16.6084 13.6539 16.5806 13.6296 16.5548 13.6032C16.381 13.4376 16.15 13.3451 15.9098 13.3451C15.6697 13.3451 15.4387 13.4376 15.2648 13.6032C15.2427 13.6256 15.2193 13.6468 15.1948 13.6666L13.5632 14.9666C13.4499 15.0567 13.3151 15.1158 13.172 15.138C13.029 15.1603 12.8826 15.1448 12.7473 15.0932C11.0674 14.4674 9.54168 13.4879 8.27342 12.2209C7.00516 10.9539 6.02403 9.42916 5.3965 7.74991C5.34095 7.61272 5.32294 7.4632 5.34432 7.31674C5.36571 7.17028 5.42571 7.03216 5.51817 6.91658L6.81317 5.28657C6.83243 5.26188 6.85331 5.2385 6.87567 5.21658C7.04589 5.0449 7.1414 4.81292 7.1414 4.57116C7.1414 4.32939 7.04589 4.09742 6.87567 3.92574C6.8497 3.89983 6.82574 3.87197 6.804 3.84241L5.31817 1.90574C5.15028 1.75405 4.93194 1.67028 4.70567 1.67074V1.66657ZM19.2832 10.4799C23.4415 4.35908 16.1165 -2.95843 10.0023 1.19907C9.91013 1.26063 9.83114 1.33997 9.76998 1.43245C9.70883 1.52492 9.66674 1.62866 9.64618 1.73761C9.62562 1.84655 9.62701 1.9585 9.65026 2.0669C9.67351 2.1753 9.71816 2.27797 9.78158 2.3689C9.84501 2.45983 9.92595 2.53718 10.0196 2.59644C10.1133 2.6557 10.2179 2.69566 10.3273 2.71399C10.4366 2.73233 10.5485 2.72866 10.6564 2.7032C10.7643 2.67774 10.866 2.63101 10.9557 2.56574C15.5173 -0.566759 21.0473 4.96908 17.9165 9.52741C17.8498 9.61695 17.8018 9.71897 17.7753 9.82742C17.7488 9.93587 17.7444 10.0485 17.7623 10.1587C17.7802 10.2689 17.82 10.3744 17.8795 10.4689C17.9389 10.5634 18.0168 10.645 18.1084 10.7088C18.2 10.7727 18.3034 10.8174 18.4127 10.8405C18.5219 10.8636 18.6346 10.8644 18.7442 10.8431C18.8538 10.8217 18.958 10.7786 19.0506 10.7162C19.1431 10.6538 19.2222 10.5735 19.2832 10.4799ZM16.0682 8.92574C16.2244 8.76947 16.3121 8.55755 16.3121 8.33658C16.3121 8.11561 16.2244 7.90368 16.0682 7.74741L14.6465 6.32491V4.16657C14.6465 3.94556 14.5587 3.7336 14.4024 3.57732C14.2461 3.42104 14.0342 3.33324 13.8132 3.33324C13.5921 3.33324 13.3802 3.42104 13.2239 3.57732C13.0676 3.7336 12.9798 3.94556 12.9798 4.16657V6.66658C12.9799 6.88757 13.0677 7.0995 13.224 7.25574L14.8907 8.92241C15.0469 9.07864 15.2589 9.1664 15.4798 9.1664C15.7008 9.1664 15.9127 9.07864 16.069 8.92241L16.0682 8.92574Z" fill="black"/>
</svg>
