<svg width="75" height="75" viewBox="0 0 75 75" fill="none" xmlns="http://www.w3.org/2000/svg">
<g clip-path="url(#clip0_1_553)">
<path d="M46.875 21.0938H16.4062C13.8281 21.0938 11.7188 23.2031 11.7188 25.7812V70.3125H51.5625V25.7812C51.5625 23.2031 49.4531 21.0938 46.875 21.0938Z" fill="#E8E8E8"/>
<path d="M70.3125 42.1875H30.4688C29.1797 42.1875 28.125 43.2422 28.125 44.5312V70.3125H72.6562V44.5312C72.6562 43.2422 71.6016 42.1875 70.3125 42.1875ZM8.20312 42.1875C7.5 42.1875 6.79688 42.6562 6.32812 43.125L2.92969 48.1641C2.57812 48.75 2.34375 49.8047 2.34375 50.3906V70.3125H11.7188V42.1875H8.20312Z" fill="#62727A"/>
<path d="M14.0625 62.1094H25.7812V70.3125H14.0625V62.1094Z" fill="#B4D7EE"/>
<path d="M73.8281 70.3125H1.17188C0.46875 70.3125 0 70.8984 0 71.4844V73.8281C0 74.5312 0.46875 75 1.17188 75H73.8281C74.4141 75 75 74.5312 75 73.8281V71.4844C75 70.8984 74.4141 70.3125 73.8281 70.3125Z" fill="#62727A"/>
<path d="M16.4062 40.4297C16.4062 40.7812 16.1719 41.0156 15.8203 41.0156H14.6484C14.2969 41.0156 14.0625 40.7812 14.0625 40.4297V34.5703C14.0625 34.2187 14.2969 33.9844 14.6484 33.9844H15.8203C16.1719 33.9844 16.4062 34.2187 16.4062 34.5703V40.4297ZM21.0938 40.4297C21.0938 40.7812 20.8594 41.0156 20.5078 41.0156H19.3359C18.9844 41.0156 18.75 40.7812 18.75 40.4297V34.5703C18.75 34.2187 18.9844 33.9844 19.3359 33.9844H20.5078C20.8594 33.9844 21.0938 34.2187 21.0938 34.5703V40.4297ZM25.7812 40.4297C25.7812 40.7812 25.5469 41.0156 25.1953 41.0156H24.0234C23.6719 41.0156 23.4375 40.7812 23.4375 40.4297V34.5703C23.4375 34.2187 23.6719 33.9844 24.0234 33.9844H25.1953C25.5469 33.9844 25.7812 34.2187 25.7812 34.5703V40.4297ZM30.4688 40.4297C30.4688 40.7812 30.2344 41.0156 29.8828 41.0156H28.7109C28.3594 41.0156 28.125 40.7812 28.125 40.4297V34.5703C28.125 34.2187 28.3594 33.9844 28.7109 33.9844H29.8828C30.2344 33.9844 30.4688 34.2187 30.4688 34.5703V40.4297ZM35.1562 40.4297C35.1562 40.7812 34.9219 41.0156 34.5703 41.0156H33.3984C33.0469 41.0156 32.8125 40.7812 32.8125 40.4297V34.5703C32.8125 34.2187 33.0469 33.9844 33.3984 33.9844H34.5703C34.9219 33.9844 35.1562 34.2187 35.1562 34.5703V40.4297ZM16.4062 49.8047C16.4062 50.1562 16.1719 50.3906 15.8203 50.3906H14.6484C14.2969 50.3906 14.0625 50.1562 14.0625 49.8047V43.9453C14.0625 43.5938 14.2969 43.3594 14.6484 43.3594H15.8203C16.1719 43.3594 16.4062 43.5938 16.4062 43.9453V49.8047ZM21.0938 49.8047C21.0938 50.1562 20.8594 50.3906 20.5078 50.3906H19.3359C18.9844 50.3906 18.75 50.1562 18.75 49.8047V43.9453C18.75 43.5938 18.9844 43.3594 19.3359 43.3594H20.5078C20.8594 43.3594 21.0938 43.5938 21.0938 43.9453V49.8047ZM25.7812 49.8047C25.7812 50.1562 25.5469 50.3906 25.1953 50.3906H24.0234C23.6719 50.3906 23.4375 50.1562 23.4375 49.8047V43.9453C23.4375 43.5938 23.6719 43.3594 24.0234 43.3594H25.1953C25.5469 43.3594 25.7812 43.5938 25.7812 43.9453V49.8047ZM16.4062 59.1797C16.4062 59.5312 16.1719 59.7656 15.8203 59.7656H14.6484C14.2969 59.7656 14.0625 59.5312 14.0625 59.1797V53.3203C14.0625 52.9688 14.2969 52.7344 14.6484 52.7344H15.8203C16.1719 52.7344 16.4062 52.9688 16.4062 53.3203V59.1797ZM21.0938 59.1797C21.0938 59.5312 20.8594 59.7656 20.5078 59.7656H19.3359C18.9844 59.7656 18.75 59.5312 18.75 59.1797V53.3203C18.75 52.9688 18.9844 52.7344 19.3359 52.7344H20.5078C20.8594 52.7344 21.0938 52.9688 21.0938 53.3203V59.1797ZM25.7812 59.1797C25.7812 59.5312 25.5469 59.7656 25.1953 59.7656H24.0234C23.6719 59.7656 23.4375 59.5312 23.4375 59.1797V53.3203C23.4375 52.9688 23.6719 52.7344 24.0234 52.7344H25.1953C25.5469 52.7344 25.7812 52.9688 25.7812 53.3203V59.1797ZM37.5 51.5625H72.6562V70.3125H37.5V51.5625ZM8.20312 54.4922C8.20312 54.8438 7.96875 55.0781 7.61719 55.0781H6.44531C6.09375 55.0781 5.85938 54.8438 5.85938 54.4922V48.6328C5.85938 48.2812 6.09375 48.0469 6.44531 48.0469H7.61719C7.96875 48.0469 8.20312 48.2812 8.20312 48.6328V54.4922ZM8.20312 65.0391C8.20312 65.3906 7.96875 65.625 7.61719 65.625H6.44531C6.09375 65.625 5.85938 65.3906 5.85938 65.0391V59.1797C5.85938 58.8281 6.09375 58.5938 6.44531 58.5938H7.61719C7.96875 58.5938 8.20312 58.8281 8.20312 59.1797V65.0391Z" fill="#B4D7EE"/>
<path d="M24.6094 62.1094H14.0625V70.3125H15.2344V63.2812H19.3359V70.3125H20.5078V63.2812H24.6094V70.3125H25.7812V62.1094H24.6094Z" fill="white"/>
<path d="M20.5078 65.625H19.3359C18.9844 65.625 18.75 65.8594 18.75 66.2109V67.3828C18.75 67.7344 18.9844 67.9688 19.3359 67.9688H20.5078C20.8594 67.9688 21.0938 67.7344 21.0938 67.3828V66.2109C21.0938 65.8594 20.8594 65.625 20.5078 65.625Z" fill="white"/>
<path d="M15.2344 70.3125H24.6094V72.6562H15.2344V70.3125Z" fill="#B2C1C0"/>
<path d="M15.2344 72.6562H24.6094V75H15.2344V72.6562Z" fill="#E8E8E8"/>
<path d="M38.6719 51.5625H72.6562V49.2188H36.3281C35.7422 49.2188 35.1562 49.8047 35.1562 50.3906V70.3125H37.5V66.7969C37.5 66.2109 38.0859 65.625 38.6719 65.625H72.6562V63.2812H38.6719C38.0859 63.2812 37.5 62.8125 37.5 62.1094V59.7656C37.5 59.1797 38.0859 58.5938 38.6719 58.5938H72.6562V56.25H38.6719C38.0859 56.25 37.5 55.6641 37.5 55.0781V52.7344C37.5 52.1484 38.0859 51.5625 38.6719 51.5625Z" fill="white"/>
<path d="M16.4062 31.0547C16.4062 31.4062 16.1719 31.6406 15.8203 31.6406H14.6484C14.2969 31.6406 14.0625 31.4062 14.0625 31.0547V25.1953C14.0625 24.8437 14.2969 24.6094 14.6484 24.6094H15.8203C16.1719 24.6094 16.4062 24.8437 16.4062 25.1953V31.0547ZM21.0938 31.0547C21.0938 31.4062 20.8594 31.6406 20.5078 31.6406H19.3359C18.9844 31.6406 18.75 31.4062 18.75 31.0547V25.1953C18.75 24.8437 18.9844 24.6094 19.3359 24.6094H20.5078C20.8594 24.6094 21.0938 24.8437 21.0938 25.1953V31.0547ZM25.7812 31.0547C25.7812 31.4062 25.5469 31.6406 25.1953 31.6406H24.0234C23.6719 31.6406 23.4375 31.4062 23.4375 31.0547V25.1953C23.4375 24.8437 23.6719 24.6094 24.0234 24.6094H25.1953C25.5469 24.6094 25.7812 24.8437 25.7812 25.1953V31.0547ZM30.4688 31.0547C30.4688 31.4062 30.2344 31.6406 29.8828 31.6406H28.7109C28.3594 31.6406 28.125 31.4062 28.125 31.0547V25.1953C28.125 24.8437 28.3594 24.6094 28.7109 24.6094H29.8828C30.2344 24.6094 30.4688 24.8437 30.4688 25.1953V31.0547ZM35.1562 31.0547C35.1562 31.4062 34.9219 31.6406 34.5703 31.6406H33.3984C33.0469 31.6406 32.8125 31.4062 32.8125 31.0547V25.1953C32.8125 24.8437 33.0469 24.6094 33.3984 24.6094H34.5703C34.9219 24.6094 35.1562 24.8437 35.1562 25.1953V31.0547ZM39.8438 40.4297C39.8438 40.7812 39.6094 41.0156 39.2578 41.0156H38.0859C37.7344 41.0156 37.5 40.7812 37.5 40.4297V34.5703C37.5 34.2188 37.7344 33.9844 38.0859 33.9844H39.2578C39.6094 33.9844 39.8438 34.2188 39.8438 34.5703V40.4297ZM39.8438 31.0547C39.8438 31.4062 39.6094 31.6406 39.2578 31.6406H38.0859C37.7344 31.6406 37.5 31.4062 37.5 31.0547V25.1953C37.5 24.8437 37.7344 24.6094 38.0859 24.6094H39.2578C39.6094 24.6094 39.8438 24.8437 39.8438 25.1953V31.0547ZM44.5312 40.4297C44.5312 40.7812 44.2969 41.0156 43.9453 41.0156H42.7734C42.4219 41.0156 42.1875 40.7812 42.1875 40.4297V34.5703C42.1875 34.2188 42.4219 33.9844 42.7734 33.9844H43.9453C44.2969 33.9844 44.5312 34.2188 44.5312 34.5703V40.4297ZM44.5312 31.0547C44.5312 31.4062 44.2969 31.6406 43.9453 31.6406H42.7734C42.4219 31.6406 42.1875 31.4062 42.1875 31.0547V25.1953C42.1875 24.8437 42.4219 24.6094 42.7734 24.6094H43.9453C44.2969 24.6094 44.5312 24.8437 44.5312 25.1953V31.0547ZM49.2188 40.4297C49.2188 40.7812 48.9844 41.0156 48.6328 41.0156H47.4609C47.1094 41.0156 46.875 40.7812 46.875 40.4297V34.5703C46.875 34.2188 47.1094 33.9844 47.4609 33.9844H48.6328C48.9844 33.9844 49.2188 34.2188 49.2188 34.5703V40.4297ZM49.2188 31.0547C49.2188 31.4062 48.9844 31.6406 48.6328 31.6406H47.4609C47.1094 31.6406 46.875 31.4062 46.875 31.0547V25.1953C46.875 24.8437 47.1094 24.6094 47.4609 24.6094H48.6328C48.9844 24.6094 49.2188 24.8437 49.2188 25.1953V31.0547Z" fill="#B4D7EE"/>
<path d="M22.2656 9.375H41.0156V21.0938H22.2656V9.375Z" fill="#B2C1C0"/>
<path d="M31.6406 18.75C36.8183 18.75 41.0156 14.5527 41.0156 9.375C41.0156 4.19733 36.8183 0 31.6406 0C26.463 0 22.2656 4.19733 22.2656 9.375C22.2656 14.5527 26.463 18.75 31.6406 18.75Z" fill="#E8E8E8"/>
<path d="M37.5 7.03125H33.9844V3.51562C33.9844 2.92969 33.3984 2.34375 32.8125 2.34375H30.4688C29.8828 2.34375 29.2969 2.92969 29.2969 3.51562V7.03125H25.7812C25.1953 7.03125 24.6094 7.5 24.6094 8.20312V10.5469C24.6094 11.25 25.1953 11.7188 25.7812 11.7188H29.2969V15.2344C29.2969 15.9375 29.8828 16.4062 30.4688 16.4062H32.8125C33.3984 16.4062 33.9844 15.9375 33.9844 15.2344V11.7188H37.5C38.0859 11.7188 38.6719 11.25 38.6719 10.5469V8.20312C38.6719 7.5 38.0859 7.03125 37.5 7.03125Z" fill="#F15744"/>
</g>
<defs>
<clipPath id="clip0_1_553">
<rect width="75" height="75" fill="white"/>
</clipPath>
</defs>
</svg>
