<svg width="474" height="469" viewBox="0 0 474 469" fill="none" xmlns="http://www.w3.org/2000/svg">
<g clip-path="url(#clip0_1_391)">
<path d="M229.422 83.2411C224.199 91.0014 220.563 98.9549 220.724 107.735C220.742 109.376 220.958 111.008 221.367 112.597C216.839 108.595 212.625 104.25 208.765 99.5989C211.274 97.5274 220.059 89.6919 222.708 79.3986C225.926 67.3664 221.989 62.0318 216.273 68.225C210.556 74.4183 206.362 80.9978 205.289 88.8225C204.937 91.1398 205.073 93.5051 205.686 95.7671C201.835 90.6963 198.47 85.2734 195.636 79.5703C199.53 77.6061 208.507 72.3789 213.13 64.0175C219.179 53.1445 216.744 47.0157 209.698 51.5882C202.651 56.1606 196.827 61.4844 193.888 68.7617C193.336 70.1065 192.944 71.5115 192.719 72.9478C190.938 68.5327 189.542 63.9719 188.547 59.3163C192.494 57.5238 201.675 52.6508 206.673 44.4504C213.108 33.8136 210.963 27.5989 203.724 31.8923C196.484 36.1857 190.499 41.2733 187.26 48.4755C187.195 48.615 187.152 48.7438 187.088 48.8726C186.949 46.9406 186.873 44.9764 186.873 42.9692C189.786 41.42 192.111 38.958 193.491 35.9603C197.041 28.9084 197.213 21.0408 196.012 12.7116C194.81 4.38246 188.6 6.59355 184.417 18.3145C180.545 29.1338 184.16 41.6275 184.739 43.4844C184.739 45.5345 184.825 47.5417 184.986 49.5274C180.309 43.2161 173.391 39.4487 165.444 36.776C157.496 34.1034 156.627 40.6186 165.165 49.6562C172.083 56.9979 182.798 59.7778 186.616 60.5721C187.49 64.5253 188.647 68.4102 190.08 72.1964C188.847 71.0819 187.469 70.1395 185.983 69.395C178.947 65.8315 171.075 65.6597 162.762 66.8512C154.45 68.0426 156.638 74.268 168.35 78.4648C178.153 81.9853 189.351 79.3449 192.719 78.3896C194.688 82.6195 196.953 86.7048 199.498 90.615L198.886 90.2823C191.056 86.3216 182.315 86.1177 173.07 87.4487C163.824 88.7796 166.269 95.6919 179.28 100.329C190.349 104.3 202.994 101.209 206.534 100.2C209.326 103.611 212.301 106.868 215.447 109.957C215.039 109.839 214.621 109.721 214.17 109.613C205.59 107.628 197.084 109.517 188.429 113.016C179.773 116.515 183.784 122.676 197.535 124.071C208.904 125.263 220.155 119.606 223.705 117.631C224.247 118.427 224.914 119.13 225.679 119.713L226.119 119.252C227.674 120.433 228.629 121.077 228.693 121.12L229.873 119.306C229.808 119.306 228.95 118.694 227.524 117.62C230.741 113.692 237.284 104.74 238.378 94.4576C239.805 80.708 234.646 75.4916 229.422 83.2411Z" fill="url(#paint0_linear_1_391)"/>
<path d="M154.75 254.783C204.805 254.783 245.382 214.176 245.382 164.085C245.382 113.994 204.805 73.3877 154.75 73.3877C104.695 73.3877 64.1181 113.994 64.1181 164.085C64.1181 214.176 104.695 254.783 154.75 254.783Z" fill="url(#paint1_linear_1_391)"/>
<path d="M364.855 129.159C400.427 129.159 429.263 100.302 429.263 64.7044C429.263 29.1072 400.427 0.25 364.855 0.25C329.284 0.25 300.448 29.1072 300.448 64.7044C300.448 100.302 329.284 129.159 364.855 129.159Z" fill="url(#paint2_linear_1_391)"/>
<path d="M440.122 379.364C480.534 338.923 480.534 273.354 440.122 232.913C399.71 192.472 334.189 192.472 293.777 232.913C253.365 273.354 253.365 338.923 293.777 379.364C334.189 419.805 399.71 419.805 440.122 379.364Z" fill="url(#paint3_linear_1_391)"/>
<path d="M379.174 395.102C383.4 405.288 385.738 415.356 383.464 425.466C383.061 427.36 382.431 429.198 381.588 430.941C387.771 427.38 393.673 423.35 399.242 418.887C396.829 415.903 388.516 404.772 387.776 392.236C386.94 377.574 392.678 372.314 397.815 380.805C402.953 389.295 406.396 397.978 405.763 407.23C405.622 409.993 404.914 412.697 403.682 415.173C409.341 410.216 414.52 404.736 419.149 398.805C415.116 395.585 405.988 387.481 402.567 376.704C398.116 362.751 402.363 356.193 409.453 363.137C416.543 370.082 422.002 377.595 423.707 386.751C424.028 388.437 424.15 390.156 424.072 391.871C427.154 387.162 429.824 382.195 432.052 377.026C427.912 374.021 418.43 366.293 414.569 355.56C409.571 341.746 413.572 335.069 420.919 341.735C428.266 348.4 434.025 355.688 436.085 364.78C436.085 364.951 436.149 365.112 436.181 365.284C436.803 363.073 437.347 360.808 437.812 358.49C435.924 357.03 433.296 354.196 431.827 348.83C429.37 339.835 431.011 330.69 434.347 321.352C437.683 312.014 444.365 315.985 446.467 330.551C448.398 343.967 441.297 357.577 440.193 359.595C439.699 361.957 439.131 364.264 438.487 366.518C445.373 360.261 454.254 357.577 464.079 356.322C473.903 355.066 473.378 362.826 461.387 371.348C451.658 378.218 438.616 378.926 434.036 378.948C432.086 383.324 429.828 387.557 427.279 391.613C428.974 390.605 430.801 389.836 432.706 389.327C441.684 386.858 450.822 388.5 460.164 391.839C469.506 395.177 465.527 401.853 450.983 403.957C438.809 405.728 426.485 400.05 422.806 398.161C419.53 402.587 415.946 406.776 412.081 410.697L412.853 410.461C422.838 407.713 432.996 409.538 443.378 413.241C453.761 416.944 449.32 424.372 433.178 426.722C419.438 428.719 405.538 422.182 401.677 420.175C397.65 423.468 393.446 426.539 389.085 429.373C389.589 429.373 390.104 429.288 390.651 429.277C400.99 428.987 410.429 433.173 419.61 439.248C428.791 445.323 422.731 451.474 406.493 449.907C393.053 448.619 381.373 439.431 377.737 436.297C376.922 437.09 375.984 437.746 374.959 438.239L374.562 437.606C372.492 438.604 371.237 439.119 371.141 439.152L370.197 436.79C370.283 436.79 371.409 436.297 373.318 435.384C370.476 430.082 365.059 418.157 366.185 406.039C367.762 389.735 374.948 384.916 379.174 395.102Z" fill="url(#paint4_linear_1_391)"/>
<path d="M108.061 417.298C121.147 416.139 133.406 417.073 144.1 423.234C146.105 424.379 147.969 425.755 149.655 427.334C147.801 419.036 145.32 410.891 142.233 402.969C137.943 404.654 122.348 410.15 107.857 406.479C90.9001 402.186 86.9745 393.781 98.4617 390.98C109.949 388.178 120.986 387.363 131.325 391.388C134.413 392.536 137.232 394.308 139.605 396.593C136.001 388.38 131.627 380.528 126.542 373.141C121.468 376.586 108.962 384.057 95.5014 384.1C78.0079 384.153 72.1302 376.983 82.5555 371.413C92.9809 365.842 103.471 362.311 114.486 363.653C116.518 363.89 118.515 364.362 120.439 365.059C116.209 359.879 111.544 355.07 106.495 350.687C101.604 354.325 89.3342 362.332 75.8734 362.901C58.3906 363.653 52.277 356.708 62.4342 350.74C72.5914 344.772 82.9739 340.822 94.0428 341.724L94.6434 341.799C92.3624 340.297 89.9884 338.865 87.5215 337.506C85.1833 339.137 80.9681 341.091 74.3504 340.844C63.26 340.425 53.4568 335.284 44.0396 328.146C34.6225 321.009 41.5513 314.848 58.8196 317.66C74.758 320.257 87.6824 333.212 89.5701 335.177C92.08 336.608 94.5004 338.082 96.8314 339.599C92.1765 329.52 92.3159 318.465 94.3967 306.83C96.4775 295.195 105.122 298.586 110.485 315.255C114.775 328.78 110.946 343.871 109.338 349.098C113.616 352.876 117.616 356.958 121.307 361.313C120.771 359.021 120.551 356.666 120.653 354.314C121.061 343.216 126.198 333.406 133.331 323.971C140.464 314.536 146.609 321.481 143.821 338.762C141.472 353.241 130.607 365.23 127.142 368.74C131.006 374.04 134.49 379.606 137.568 385.398C137.568 385.066 137.568 384.765 137.568 384.422C138.018 372.078 143.724 361.184 151.65 350.687C159.577 340.189 166.42 347.917 163.309 367.13C160.671 383.466 148.293 396.948 144.604 400.619C146.909 406.379 148.893 412.262 150.546 418.243C150.685 417.642 150.825 417.051 150.996 416.429C154.375 404.547 162.505 395.316 172.694 387.008C182.884 378.701 187.71 387.835 180.116 405.749C173.842 420.583 159.223 430.586 154.375 433.602C154.981 434.814 155.39 436.115 155.587 437.456L154.718 437.67C155.115 440.397 155.254 441.964 155.265 442.114L152.24 442.35C152.24 442.243 152.101 440.794 151.758 438.304C144.711 439.635 129.234 441.524 115.87 435.91C97.8718 428.364 94.9652 418.468 108.061 417.298Z" fill="url(#paint5_linear_1_391)"/>
<path d="M81.5044 396.347C81.9013 405.47 83.6496 413.831 88.8837 420.636C89.8481 421.916 90.9646 423.073 92.2086 424.082C86.3344 423.561 80.5081 422.596 74.7794 421.195C75.5409 418.114 77.9006 406.844 74.0501 397.195C69.556 385.914 63.4102 383.982 62.5307 392.15C61.6512 400.318 62.1017 407.982 65.8127 414.744C66.882 416.763 68.3574 418.539 70.1459 419.96C64.1689 418.23 58.369 415.937 52.8239 413.112C54.7331 409.302 58.7338 400.007 57.5325 390.733C55.9773 378.679 50.5072 375.288 47.6327 382.973C44.7582 390.658 43.2781 398.214 45.2087 405.674C45.5493 407.054 46.0571 408.388 46.721 409.645C42.7671 407.203 39.0313 404.424 35.5556 401.338C37.6042 397.645 41.991 388.458 41.1651 379.13C40.0926 367.034 34.7297 363.416 31.5656 370.994C28.4016 378.572 26.6211 386.021 28.2514 393.534C28.2514 393.685 28.3265 393.814 28.3587 393.942C27.1216 392.511 25.9204 391.009 24.7548 389.434C26.1402 386.512 26.5175 383.213 25.8274 380.053C24.5296 372.454 20.0999 366.175 14.3295 360.336C8.55906 354.497 4.95523 359.842 8.46253 371.477C11.6802 382.211 21.7946 389.939 23.3283 391.055C24.5153 392.658 25.7452 394.189 27.018 395.649C19.6709 393.373 12.0771 394.468 4.26879 396.969C-3.5395 399.47 -0.418333 405.094 11.5301 407.252C21.1832 408.991 31.2546 404.955 34.6975 403.366C37.6809 405.974 40.8537 408.356 44.1898 410.493C42.5653 410.341 40.9277 410.406 39.3203 410.686C31.7265 411.985 25.452 416.418 19.6065 422.182C13.761 427.946 19.1024 431.563 30.729 428.064C40.4787 425.123 47.7292 416.547 49.8315 413.842C53.8311 416.015 57.9777 417.905 62.2411 419.499L61.5654 419.585C53.1243 421.023 46.1418 425.949 39.6528 432.368C33.1638 438.787 39.0951 442.79 52.0195 438.894C63.0348 435.631 71.2185 425.853 73.3636 422.998C77.5338 424.058 81.7589 424.89 86.0199 425.488C85.6231 425.627 85.2262 425.778 84.8079 425.96C76.946 429.363 71.3472 435.814 66.5743 443.585C61.8013 451.356 68.5156 453.846 80.1423 446.987C89.7954 441.309 95.3084 430.339 96.9387 426.712C97.8303 427.016 98.764 427.179 99.7059 427.195C99.7059 427.195 99.7059 426.969 99.7703 426.572C101.679 426.572 102.795 426.572 102.881 426.572L102.763 424.425C102.688 424.425 101.69 424.479 99.9311 424.425C100.21 419.456 100.103 408.615 95.008 399.932C88.1865 388.329 81.1183 387.234 81.5044 396.347Z" fill="url(#paint6_linear_1_391)"/>
<path d="M334.47 159.051C335.253 168.368 334.555 177.084 330.179 184.672C329.36 186.098 328.373 187.42 327.241 188.611C333.141 187.316 338.935 185.576 344.573 183.406C343.393 180.368 339.532 169.237 342.181 158.933C345.281 146.89 351.266 144.121 353.229 152.3C355.192 160.479 355.728 168.336 352.832 175.678C352.018 177.875 350.749 179.875 349.11 181.549C354.958 179.01 360.554 175.923 365.821 172.329C363.386 168.712 358.109 159.792 358.12 150.218C358.12 137.767 363.247 133.602 367.172 141.041C371.098 148.479 373.608 155.949 372.589 163.785C372.418 165.23 372.076 166.65 371.57 168.014C375.267 165.018 378.698 161.707 381.823 158.118C379.26 154.629 373.608 145.903 373.243 136.296C372.771 123.856 377.716 119.499 381.931 126.776C386.146 134.053 388.913 141.416 388.237 149.316C388.237 149.466 388.237 149.606 388.237 149.746C389.31 148.125 390.383 146.44 391.305 144.69C389.518 141.905 388.7 138.607 388.978 135.309C389.31 127.42 392.989 120.465 398.094 113.788C403.2 107.112 407.544 112.06 405.495 124.329C403.607 135.663 394.362 144.819 392.957 146.161C391.949 147.942 390.897 149.656 389.803 151.302C396.968 148.082 404.819 148.157 413.078 149.67C421.337 151.184 418.902 157.323 407.05 161.069C397.397 164.096 386.672 161.305 383.014 160.146C380.314 163.174 377.404 166.008 374.305 168.626C375.932 168.252 377.603 168.104 379.271 168.186C387.154 168.508 394.104 172.189 400.786 177.288C407.469 182.386 402.524 186.754 390.254 184.704C379.968 182.998 371.484 175.227 369.006 172.758C365.226 175.483 361.263 177.943 357.144 180.121C357.369 180.121 357.594 180.121 357.83 180.121C366.593 180.486 374.326 184.576 381.748 190.243C389.171 195.91 383.679 200.762 370.047 198.497C358.441 196.565 348.906 187.699 346.3 185.091C342.171 186.689 337.956 188.058 333.676 189.191C334.094 189.288 334.523 189.395 334.963 189.524C343.393 191.96 349.979 197.767 355.792 205.044C361.606 212.322 355.159 215.713 342.46 210.271C331.938 205.753 324.881 195.33 322.746 191.864C321.887 192.295 320.963 192.585 320.011 192.722C320.011 192.722 319.947 192.486 319.861 192.1C317.92 192.368 316.772 192.465 316.697 192.475L316.547 190.329C316.622 190.329 317.62 190.243 319.421 189.996C318.488 184.983 317.191 173.96 321.223 164.483C326.64 151.774 333.676 149.735 334.47 159.051Z" fill="url(#paint7_linear_1_391)"/>
<path d="M242.829 468.25C361.557 468.25 457.804 462.061 457.804 454.425C457.804 446.79 361.557 440.601 242.829 440.601C124.102 440.601 27.8546 446.79 27.8546 454.425C27.8546 462.061 124.102 468.25 242.829 468.25Z" fill="#E9F0F6"/>
<path d="M365.37 261.105C366.274 261.102 367.14 260.742 367.779 260.102C368.418 259.463 368.778 258.596 368.781 257.692V251.713C368.781 250.807 368.422 249.938 367.783 249.296C367.143 248.654 366.276 248.292 365.37 248.289C364.463 248.289 363.593 248.65 362.951 249.292C362.309 249.934 361.949 250.805 361.949 251.713V257.692C361.952 258.598 362.313 259.466 362.955 260.106C363.596 260.746 364.465 261.105 365.37 261.105Z" fill="#FFDBD9"/>
<path d="M365.36 252.336C371.502 252.336 376.482 246.959 376.482 240.325C376.482 233.692 371.502 228.314 365.36 228.314C359.217 228.314 354.237 233.692 354.237 240.325C354.237 246.959 359.217 252.336 365.36 252.336Z" fill="#FFDBD9"/>
<path d="M382.156 242.311C382.156 243.05 381.937 243.773 381.526 244.387C381.116 245.002 380.532 245.48 379.849 245.763C379.167 246.045 378.416 246.118 377.691 245.973C376.967 245.829 376.302 245.472 375.78 244.948C375.259 244.425 374.904 243.758 374.761 243.033C374.619 242.308 374.694 241.556 374.978 240.874C375.262 240.192 375.742 239.609 376.358 239.2C376.973 238.791 377.695 238.573 378.434 238.576C378.924 238.576 379.409 238.672 379.861 238.86C380.313 239.048 380.724 239.323 381.07 239.67C381.415 240.017 381.689 240.429 381.876 240.882C382.062 241.335 382.157 241.821 382.156 242.311Z" fill="#FFDBD9"/>
<path d="M376.75 242.418C376.75 242.418 377.598 239.273 380.376 240.357" stroke="#353535" stroke-width="0.5" stroke-linecap="round" stroke-linejoin="round"/>
<path d="M348.284 242.311C348.284 243.05 348.504 243.773 348.914 244.387C349.325 245.002 349.908 245.48 350.591 245.763C351.274 246.045 352.025 246.118 352.749 245.973C353.473 245.829 354.138 245.472 354.66 244.948C355.182 244.425 355.536 243.758 355.679 243.033C355.822 242.308 355.746 241.556 355.462 240.874C355.178 240.192 354.698 239.609 354.083 239.2C353.468 238.791 352.745 238.573 352.006 238.576C351.517 238.576 351.032 238.672 350.579 238.86C350.127 239.048 349.716 239.323 349.371 239.67C349.025 240.017 348.751 240.429 348.565 240.882C348.378 241.335 348.283 241.821 348.284 242.311Z" fill="#FFDBD9"/>
<path d="M353.679 242.418C353.679 242.418 352.832 239.273 350.054 240.357" stroke="#353535" stroke-width="0.5" stroke-linecap="round" stroke-linejoin="round"/>
<path d="M365.424 242.075C365.424 242.075 365.585 243.084 366.035 243.298C366.486 243.513 366.421 244.479 365.478 244.372" stroke="#353535" stroke-width="0.5" stroke-linecap="round" stroke-linejoin="round"/>
<path d="M371.227 237.738C370.83 237.156 370.22 236.754 369.53 236.619C368.839 236.485 368.122 236.628 367.537 237.019" stroke="#353535" stroke-width="0.5" stroke-linecap="round" stroke-linejoin="round"/>
<path d="M359.986 237.738C360.18 237.449 360.43 237.201 360.72 237.009C361.01 236.816 361.335 236.683 361.677 236.616C362.018 236.549 362.37 236.55 362.711 236.62C363.052 236.689 363.376 236.825 363.665 237.019" stroke="#353535" stroke-width="0.5" stroke-linecap="round" stroke-linejoin="round"/>
<path d="M377.372 238.651L376.193 239.724C377.78 235.806 364.598 228.207 357.401 232.082C357.401 232.082 357.165 240.314 353.99 239.134C353.99 239.134 351.105 228.98 360.501 226.093C369.897 223.205 378.488 228.508 377.372 238.651Z" fill="#353535"/>
<path d="M366.175 257.606C381.191 257.606 384.923 269.831 384.923 269.831L382.778 310.404L346.075 309.738C346.075 309.738 345.539 295.688 345.41 287.638C345.013 267.62 348.091 257.606 366.175 257.606Z" fill="#F7C737"/>
<path d="M391.627 443.134L391.873 451.645H359.578C359.6 450.508 359.855 449.386 360.33 448.352C360.804 447.318 361.487 446.393 362.335 445.635C365.338 442.629 377.608 442.629 377.608 442.629L391.627 443.134Z" fill="white"/>
<path d="M361.584 443.134L361.842 451.645H329.547C329.564 450.508 329.817 449.386 330.289 448.352C330.762 447.317 331.444 446.392 332.292 445.635C335.296 442.629 347.566 442.629 347.566 442.629L361.584 443.134Z" fill="white"/>
<path d="M383.046 309.899C383.046 309.899 389.482 331.731 389.857 346.243C390.232 360.755 391.069 443.574 391.069 443.574L366.057 443.66L364.298 351.051L361.648 443.66H338.738C338.738 443.66 339.714 361.506 342.353 342.325C344.992 323.145 347.34 309.749 347.34 309.749L383.046 309.899Z" fill="#353535"/>
<path d="M359.9 255.202C359.9 257.831 362.367 259.967 365.402 259.967C368.438 259.967 370.915 257.821 370.915 255.202C370.915 252.583 368.449 250.447 365.402 250.447C362.356 250.447 359.9 252.572 359.9 255.202Z" fill="#FFDBD9"/>
<path d="M367.998 240.84C367.998 241.538 368.395 242.107 368.888 242.107C369.382 242.107 369.779 241.538 369.779 240.84C369.779 240.143 369.382 239.574 368.888 239.574C368.395 239.574 367.998 240.143 367.998 240.84Z" fill="#353535"/>
<path d="M361.38 240.84C361.38 241.538 361.777 242.107 362.271 242.107C362.764 242.107 363.161 241.538 363.161 240.84C363.161 240.143 362.764 239.574 362.271 239.574C361.777 239.574 361.38 240.143 361.38 240.84Z" fill="#353535"/>
<path d="M378.059 260.88C378.059 260.88 406.407 277.452 408.949 285.803C411.491 294.153 392.86 318.218 392.86 318.218L381.062 307.86C381.062 307.86 391.251 292.232 388.924 286.801C387.926 284.472 375.613 278.804 375.613 278.804L378.059 260.88Z" fill="#F7C737"/>
<path d="M342.578 262.093C343.651 262.457 356.725 265.001 356.725 265.001C356.725 265.001 357.09 315.449 341.484 311.853C325.878 308.257 342.578 262.093 342.578 262.093Z" fill="#F7C737"/>
<path d="M347.062 250.468C347.963 248.322 355.245 242.762 355.642 244.168C356.039 245.574 354.355 248.654 354.355 248.654C354.355 248.654 356.897 247.205 357.626 248.289C358.356 249.373 355.084 252.647 355.084 252.647C355.084 252.647 357.809 251.381 358.538 252.465C359.267 253.549 356.178 255.738 356.178 255.738C356.178 255.738 358.173 255.373 358.892 256.286C359.611 257.198 355.996 258.83 355.996 258.83L356.715 265.001L343.468 262.64C343.468 262.64 346.15 252.647 347.062 250.468Z" fill="#FFDBD9"/>
<path d="M342.578 262.093C343.651 262.457 356.725 265.001 356.725 265.001C356.725 265.001 357.09 315.449 341.484 311.853" stroke="#353535" stroke-width="0.5" stroke-linecap="round" stroke-linejoin="round"/>
<path d="M359.793 258.39L361.949 256.06L365.402 259.967L369.092 256.06L371.741 258.057L367.762 263.209L365.36 261.148L363.279 262.876L359.793 258.39Z" fill="#F2F1EB"/>
<path d="M356.522 228.497C358.742 225.468 362.07 223.442 365.778 222.862C371.956 221.96 378.649 223.592 380.3 222.862C381.952 222.132 377.029 232.672 377.029 232.672L379.936 231.599L376.718 238.318C376.718 238.318 373.629 229.957 367.998 230.322C364.093 230.425 360.202 229.806 356.522 228.497Z" fill="#353535"/>
<path d="M383.046 309.899C383.046 309.899 378.402 314.483 381.126 317.617C383.851 320.751 386.714 324.293 386.714 324.293C386.714 324.293 386.307 331.924 388.205 331.377L390.79 325.109C390.79 325.109 391.745 318.433 391.337 316.941C390.93 315.449 383.046 309.899 383.046 309.899Z" fill="#FFDBD9"/>
<path d="M385.62 316.254C385.62 316.254 388.345 320.483 388.205 321.567C387.902 322.569 387.394 323.497 386.714 324.293" stroke="#353535" stroke-width="0.5" stroke-linecap="round" stroke-linejoin="round"/>
<path d="M365.36 261.148V276.261" stroke="#353535" stroke-width="0.5" stroke-linecap="round" stroke-linejoin="round"/>
<path d="M77.6539 261.105C76.7493 261.105 75.8818 260.745 75.2422 260.105C74.6025 259.465 74.2432 258.597 74.2432 257.692V251.713C74.2516 250.814 74.6147 249.954 75.2535 249.321C75.8922 248.687 76.7549 248.332 77.6539 248.332C78.1027 248.332 78.5471 248.421 78.9617 248.593C79.3762 248.765 79.7527 249.018 80.0695 249.336C80.3864 249.654 80.6374 250.031 80.8082 250.447C80.9789 250.862 81.0661 251.307 81.0647 251.756V257.735C81.0534 258.633 80.6891 259.49 80.0507 260.121C79.4122 260.751 78.5511 261.105 77.6539 261.105Z" fill="#FFDBD9"/>
<path d="M77.6861 252.336C83.8289 252.336 88.8086 246.959 88.8086 240.325C88.8086 233.692 83.8289 228.314 77.6861 228.314C71.5433 228.314 66.5636 233.692 66.5636 240.325C66.5636 246.959 71.5433 252.336 77.6861 252.336Z" fill="#FFDBD9"/>
<path d="M60.9004 242.311C60.9025 243.05 61.1235 243.771 61.5354 244.384C61.9473 244.997 62.5316 245.474 63.2145 245.755C63.8973 246.036 64.648 246.108 65.3716 245.961C66.0953 245.815 66.7593 245.458 67.2798 244.934C67.8003 244.41 68.1539 243.743 68.2958 243.018C68.4378 242.293 68.3617 241.542 68.0773 240.861C67.7928 240.179 67.3127 239.597 66.6977 239.188C66.0827 238.78 65.3605 238.563 64.6222 238.565C64.1317 238.565 63.6459 238.662 63.193 238.85C62.74 239.039 62.3288 239.315 61.9829 239.663C61.637 240.011 61.3633 240.425 61.1775 240.879C60.9918 241.333 60.8976 241.82 60.9004 242.311Z" fill="#FFDBD9"/>
<path d="M66.2954 242.418C66.2954 242.418 65.4481 239.273 62.6702 240.357" stroke="#353535" stroke-width="0.5" stroke-linecap="round" stroke-linejoin="round"/>
<path d="M94.815 242.311C94.815 243.05 94.5958 243.773 94.1852 244.387C93.7746 245.002 93.191 245.48 92.5084 245.763C91.8257 246.045 91.0747 246.118 90.3504 245.973C89.626 245.829 88.961 245.472 88.4394 244.948C87.9178 244.425 87.5632 243.758 87.4204 243.033C87.2776 242.308 87.353 241.556 87.6372 240.874C87.9213 240.192 88.4014 239.609 89.0166 239.2C89.6318 238.791 90.3545 238.573 91.0932 238.576C91.5829 238.576 92.0677 238.672 92.52 238.86C92.9722 239.048 93.383 239.323 93.7287 239.67C94.0745 240.017 94.3484 240.429 94.5348 240.882C94.7212 241.335 94.8164 241.821 94.815 242.311Z" fill="#FFDBD9"/>
<path d="M89.3664 242.418C89.3664 242.418 90.2137 239.273 92.9917 240.357" stroke="#353535" stroke-width="0.5" stroke-linecap="round" stroke-linejoin="round"/>
<path d="M77.6539 242.075C77.6539 242.075 77.4823 243.084 77.0426 243.298C76.6028 243.513 76.6565 244.479 77.6003 244.372" stroke="#353535" stroke-width="0.5" stroke-linecap="round" stroke-linejoin="round"/>
<path d="M71.8299 237.738C72.2241 237.157 72.8321 236.755 73.5213 236.62C74.2104 236.485 74.9249 236.629 75.5088 237.019" stroke="#353535" stroke-width="0.5" stroke-linecap="round" stroke-linejoin="round"/>
<path d="M83.0704 237.738C82.6762 237.157 82.0682 236.755 81.379 236.62C80.6898 236.485 79.9754 236.629 79.3915 237.019" stroke="#353535" stroke-width="0.5" stroke-linecap="round" stroke-linejoin="round"/>
<path d="M65.6841 238.651L66.8639 239.724C65.2765 235.806 78.4476 228.207 85.6553 232.082C85.6553 232.082 85.8805 240.314 89.0661 239.134C89.0661 239.134 91.9513 228.98 82.5556 226.093C73.1599 223.205 64.5686 228.508 65.6841 238.651Z" fill="#353535"/>
<path d="M76.9353 257.606C61.9194 257.606 58.1868 269.831 58.1868 269.831L60.332 310.404L97.0352 309.738C97.0352 309.738 97.5715 295.688 97.7002 287.638C98.0327 267.62 94.9652 257.606 76.9353 257.606Z" fill="#353535"/>
<path d="M51.4296 443.134L51.1722 451.645H83.4672C83.45 450.508 83.1971 449.386 82.7244 448.352C82.2518 447.317 81.5698 446.392 80.7215 445.635C77.7075 442.629 65.4481 442.629 65.4481 442.629L51.4296 443.134Z" fill="#353535"/>
<path d="M81.4723 443.134L81.2148 451.645H113.51C113.492 450.507 113.238 449.385 112.763 448.35C112.289 447.315 111.604 446.391 110.753 445.635C107.75 442.629 95.4907 442.629 95.4907 442.629L81.4723 443.134Z" fill="#353535"/>
<path d="M60.0102 309.899C60.0102 309.899 53.5748 331.731 53.1994 346.243C52.824 360.755 51.9874 443.574 51.9874 443.574L76.9997 443.66L78.7265 351.041L81.365 443.649H104.286C104.286 443.649 103.31 361.495 100.671 342.314C98.0327 323.134 95.6838 309.738 95.6838 309.738L60.0102 309.899Z" fill="#98C6F5"/>
<path d="M83.1562 255.202C83.1562 257.831 80.6893 259.967 77.6432 259.967C74.5971 259.967 72.1409 257.821 72.1409 255.202C72.1409 252.583 74.6078 250.447 77.6432 250.447C80.6786 250.447 83.1562 252.572 83.1562 255.202Z" fill="#FFDBD9"/>
<path d="M75.0583 240.84C75.0583 241.538 74.6615 242.107 74.1681 242.107C73.6747 242.107 73.2778 241.538 73.2778 240.84C73.2778 240.143 73.6747 239.574 74.1681 239.574C74.6615 239.574 75.0583 240.143 75.0583 240.84Z" fill="#353535"/>
<path d="M81.6761 240.84C81.6761 241.538 81.2792 242.107 80.7858 242.107C80.2924 242.107 79.8956 241.538 79.8956 240.84C79.8956 240.143 80.2924 239.574 80.7858 239.574C81.2792 239.574 81.6761 240.143 81.6761 240.84Z" fill="#353535"/>
<path d="M64.9976 260.88C64.9976 260.88 36.6389 277.452 34.1077 285.792C31.5764 294.132 50.1962 318.207 50.1962 318.207L61.9945 307.849C61.9945 307.849 51.9123 292.232 54.1969 286.801C55.1944 284.472 67.5075 278.804 67.5075 278.804L64.9976 260.88Z" fill="#353535"/>
<path d="M83.2634 258.39L81.0969 256.06L77.6432 259.967L73.9536 256.06L71.3043 258.057L75.2835 263.209L77.6861 261.148L79.7669 262.876L83.2634 258.39Z" fill="white"/>
<path d="M86.5562 228.497C86.5562 228.497 83.4243 221.681 77.3 222.862C67.6469 224.729 65.92 221.542 62.7881 222.862C59.6562 224.182 66.4134 238.307 66.4134 238.307C66.4134 238.307 69.5024 229.946 75.1227 230.311C79.0128 230.414 82.8886 229.799 86.5562 228.497Z" fill="#353535"/>
<path d="M60.0102 309.899C60.0102 309.899 64.6437 314.483 61.9194 317.617C59.195 320.751 56.342 324.293 56.342 324.293C56.342 324.293 56.7496 331.924 54.8511 331.377L52.2662 325.109C52.2662 325.109 51.3117 318.433 51.7192 316.941C52.1268 315.449 60.0102 309.899 60.0102 309.899Z" fill="#FFDBD9"/>
<path d="M57.436 316.254C57.436 316.254 54.7117 320.483 54.8511 321.567C55.1501 322.571 55.6582 323.5 56.342 324.293" stroke="#353535" stroke-width="0.5" stroke-linecap="round" stroke-linejoin="round"/>
<path d="M90.7178 260.88C90.7178 260.88 119.066 277.452 121.629 285.792C124.193 294.132 105.541 318.207 105.541 318.207L93.7424 307.849C93.7424 307.849 103.932 292.221 101.604 286.79C100.607 284.461 88.2938 278.794 88.2938 278.794L90.7178 260.88Z" fill="#353535"/>
<path d="M95.7052 309.899C95.7052 309.899 91.0718 314.483 93.7853 317.617C96.4989 320.751 99.3734 324.293 99.3734 324.293C99.3734 324.293 98.9658 331.924 100.864 331.377L103.449 325.109C103.449 325.109 104.404 318.433 103.996 316.941C103.589 315.449 95.7052 309.899 95.7052 309.899Z" fill="#FFDBD9"/>
<path d="M98.2794 316.254C98.2794 316.254 101.004 320.483 100.864 321.567C100.565 322.571 100.057 323.5 99.3734 324.293" stroke="#353535" stroke-width="0.5" stroke-linecap="round" stroke-linejoin="round"/>
<path d="M168.608 274.211C168.608 274.211 180.932 296.751 187.227 293.338C193.523 289.924 197.578 276.433 197.578 276.433L210.159 282.572C210.159 282.572 202.147 309.105 189.566 311.069C176.984 313.034 167.128 295.645 167.128 295.645L168.608 274.211Z" fill="#FFDBD9"/>
<path d="M154.675 269.767C139.852 269.767 136.913 277.173 140.614 291.234C144.314 305.295 140.614 311.22 140.614 311.22H169.466C169.466 311.22 167.932 296.622 169.466 290.493C172.426 278.654 172.426 269.767 154.675 269.767Z" fill="white"/>
<path d="M130.263 443.252L130.017 451.645H161.818C161.806 450.529 161.565 449.427 161.109 448.408C160.653 447.388 159.993 446.474 159.169 445.721C156.209 442.758 144.153 442.758 144.153 442.758L130.263 443.252Z" fill="#FFDBD9"/>
<path d="M128.065 446.708C128.805 446.708 151.49 447.202 154.45 445.474C156.64 444.101 158.701 442.531 160.606 440.783L167.042 455.101L129.32 456.089L125.372 449.424L128.065 446.708Z" fill="#353535"/>
<path d="M159.856 443.252L159.609 451.645H191.41C191.391 450.525 191.142 449.42 190.676 448.401C190.211 447.381 189.541 446.469 188.708 445.721C185.747 442.758 173.692 442.758 173.692 442.758L159.856 443.252Z" fill="#FFDBD9"/>
<path d="M157.635 446.708C158.375 446.708 181.06 447.202 184.021 445.474C186.211 444.101 188.272 442.531 190.177 440.783L196.612 455.101L158.89 456.089L154.879 449.424L157.635 446.708Z" fill="#353535"/>
<path d="M138.072 311.23C138.072 311.23 132.859 322.565 131.99 339.577L131.121 356.633L128.526 444.035H154.568C154.568 444.035 151.961 361.388 156.305 361.388C160.649 361.388 158.901 444.035 158.901 444.035H181.479C181.479 444.035 183.216 359.466 180.61 340.565C178.003 321.663 171.933 311.273 171.933 311.273L138.072 311.23Z" fill="#4A95E3"/>
<path d="M176.984 314.976L160.585 321.105V292.189L176.984 286.06V314.976Z" fill="#353535"/>
<path d="M141.107 306.787C142.18 309.878 163.545 302.343 163.545 302.343L165.765 314.933C165.765 314.933 156.112 323.08 137.653 326.032C120.01 328.865 129.373 290.493 137.535 278.805C138.946 276.647 140.646 274.693 142.587 272.998L142.716 293.853L141.107 306.787Z" fill="#FFDBD9"/>
<path d="M163.545 302.343L172.673 295.195C172.673 295.195 173.745 296.171 172.308 298.146C170.871 300.121 174.646 298.393 176.126 296.171C177.607 293.95 177.853 298.393 177.36 299.263C177.36 299.263 178.958 297.899 178.958 300.336C178.958 302.772 177.971 302.933 177.971 302.933C177.971 302.933 179.205 302.193 179.044 303.921C178.883 305.649 178.304 306.143 178.304 306.143C178.304 306.143 179.162 306.508 178.422 308.365C177.682 310.221 163.009 316.629 163.009 316.629C163.009 316.629 162.687 304.812 163.545 302.343Z" fill="#FFDBD9"/>
<path d="M163.545 302.343C166.548 299.907 169.541 297.459 172.565 295.044C172.596 295.015 172.636 294.998 172.678 294.998C172.72 294.998 172.761 295.015 172.791 295.044C173.013 295.294 173.166 295.599 173.233 295.926C173.301 296.254 173.282 296.594 173.177 296.912C172.975 297.491 172.681 298.035 172.308 298.522C172.247 298.608 172.207 298.707 172.19 298.812C172.19 298.758 172.19 298.812 172.19 298.812H172.308C172.573 298.759 172.83 298.669 173.07 298.543C173.583 298.274 174.068 297.954 174.518 297.588C174.969 297.23 175.375 296.819 175.73 296.365C175.907 296.109 176.101 295.866 176.309 295.635L176.512 295.463C176.616 295.414 176.724 295.375 176.834 295.345C176.951 295.348 177.065 295.379 177.168 295.435C177.27 295.491 177.358 295.57 177.424 295.667C177.721 296.24 177.868 296.879 177.853 297.524C177.911 298.167 177.827 298.816 177.607 299.424L177.21 299.091C177.426 298.916 177.673 298.785 177.939 298.704C178.098 298.651 178.27 298.644 178.433 298.684C178.596 298.724 178.745 298.809 178.861 298.93C179.169 299.383 179.306 299.931 179.248 300.475C179.25 300.978 179.189 301.48 179.065 301.967C179 302.226 178.896 302.472 178.754 302.697C178.677 302.834 178.572 302.953 178.447 303.047C178.321 303.142 178.178 303.209 178.025 303.245C177.993 303.253 177.96 303.254 177.928 303.249C177.895 303.245 177.864 303.233 177.837 303.216C177.809 303.199 177.784 303.177 177.765 303.151C177.746 303.124 177.732 303.094 177.725 303.062C177.711 303.008 177.717 302.951 177.74 302.9C177.764 302.85 177.803 302.808 177.853 302.783C178.052 302.667 178.277 302.604 178.507 302.601C178.642 302.596 178.776 302.628 178.895 302.692C179.013 302.756 179.113 302.85 179.183 302.966C179.35 303.354 179.399 303.784 179.323 304.2C179.293 304.582 179.221 304.96 179.108 305.327C179.004 305.731 178.797 306.101 178.507 306.4L178.454 305.992C178.666 306.141 178.83 306.348 178.927 306.588C179.024 306.828 179.05 307.091 179.001 307.345C178.954 307.788 178.831 308.221 178.636 308.622C178.071 309.29 177.382 309.844 176.609 310.254C175.172 311.112 173.681 311.874 172.19 312.604C169.198 314.085 166.13 315.406 163.062 316.704C166.087 315.273 169.08 313.81 172.04 312.314C173.509 311.552 174.979 310.758 176.33 309.878C177.022 309.493 177.645 308.996 178.175 308.407C178.33 308.067 178.435 307.705 178.486 307.334C178.516 307.177 178.506 307.016 178.457 306.864C178.408 306.712 178.322 306.575 178.207 306.465C178.178 306.45 178.153 306.43 178.131 306.405C178.11 306.38 178.094 306.352 178.085 306.321C178.075 306.29 178.071 306.257 178.073 306.225C178.076 306.192 178.085 306.161 178.1 306.132C178.093 306.111 178.093 306.088 178.1 306.068C178.303 305.824 178.45 305.538 178.529 305.23C178.633 304.881 178.698 304.521 178.722 304.157C178.778 303.844 178.752 303.523 178.647 303.223C178.572 303.051 178.282 303.084 178.014 303.223L177.842 302.751C178.078 302.697 178.357 302.246 178.443 301.839C178.553 301.396 178.603 300.942 178.593 300.486C178.639 300.076 178.553 299.663 178.347 299.305C178.207 299.08 177.746 299.252 177.435 299.499C177.385 299.548 177.317 299.575 177.247 299.575C177.177 299.575 177.11 299.548 177.059 299.499C177.034 299.459 177.02 299.412 177.02 299.365C177.02 299.317 177.034 299.27 177.059 299.23C177.227 298.707 177.292 298.157 177.253 297.61C177.268 297.061 177.154 296.517 176.92 296.021C176.885 295.97 176.837 295.929 176.781 295.903H176.673L176.545 296.01C176.355 296.224 176.18 296.45 176.019 296.687C175.639 297.166 175.203 297.598 174.721 297.975C174.243 298.361 173.726 298.696 173.177 298.973C172.89 299.122 172.583 299.227 172.265 299.284C172.159 299.31 172.049 299.31 171.943 299.284C171.867 299.258 171.8 299.209 171.752 299.144C171.704 299.078 171.677 299 171.675 298.919C171.682 298.726 171.746 298.54 171.858 298.382C172.221 297.934 172.51 297.43 172.716 296.89C172.806 296.642 172.832 296.375 172.791 296.114C172.749 295.853 172.642 295.607 172.48 295.399H172.705C169.723 297.695 166.677 300.014 163.545 302.343Z" fill="#353535"/>
<path d="M197.578 276.433C197.578 276.433 199.723 271.13 203.134 270.508C206.544 269.885 209.29 268.908 207.939 270.636C206.587 272.365 205.719 272.611 205.719 272.611C205.719 272.611 218.664 271.538 221.003 271.001C223.341 270.465 221.249 273.47 219.769 274.833C218.289 276.196 219.769 277.302 218.171 278.783C216.573 280.264 212.873 282.475 210.159 282.604C207.445 282.733 196.966 277.42 197.578 276.433Z" fill="#FFDBD9"/>
<path d="M158.772 259.162H152.047V271.785H158.772V259.162Z" fill="#FFDBD9"/>
<path d="M155.404 264.572C161.452 264.572 166.355 259.276 166.355 252.744C166.355 246.211 161.452 240.916 155.404 240.916C149.356 240.916 144.453 246.211 144.453 252.744C144.453 259.276 149.356 264.572 155.404 264.572Z" fill="#FFDBD9"/>
<path d="M138.865 254.665C138.863 255.394 139.077 256.106 139.48 256.713C139.883 257.32 140.457 257.794 141.129 258.074C141.801 258.354 142.541 258.429 143.255 258.288C143.97 258.147 144.626 257.797 145.142 257.283C145.657 256.768 146.009 256.112 146.152 255.398C146.295 254.683 146.222 253.943 145.944 253.269C145.666 252.596 145.195 252.02 144.589 251.615C143.984 251.21 143.272 250.994 142.544 250.994C141.571 250.997 140.639 251.384 139.95 252.072C139.261 252.759 138.871 253.691 138.865 254.665Z" fill="#FFDBD9"/>
<path d="M144.153 254.805C144.153 254.805 143.317 251.703 140.581 252.776" stroke="#353535" stroke-width="0.5" stroke-linecap="round" stroke-linejoin="round"/>
<path d="M172.244 254.665C172.246 255.394 172.032 256.107 171.628 256.714C171.225 257.321 170.65 257.795 169.978 258.075C169.305 258.355 168.564 258.429 167.85 258.287C167.135 258.145 166.479 257.794 165.963 257.279C165.448 256.763 165.098 256.106 164.956 255.391C164.814 254.676 164.888 253.935 165.168 253.262C165.448 252.589 165.921 252.014 166.528 251.61C167.134 251.206 167.847 250.992 168.576 250.994C169.548 250.997 170.479 251.385 171.166 252.072C171.853 252.76 172.241 253.692 172.244 254.665Z" fill="#FFDBD9"/>
<path d="M166.924 254.805C166.924 254.805 167.75 251.703 170.495 252.776" stroke="#353535" stroke-width="0.5" stroke-linecap="round" stroke-linejoin="round"/>
<path d="M155.361 254.472C155.361 254.472 155.19 255.459 154.75 255.674C154.31 255.889 154.375 256.833 155.297 256.747" stroke="#353535" stroke-width="0.5" stroke-linecap="round" stroke-linejoin="round"/>
<path d="M149.645 250.189C150.034 249.617 150.634 249.222 151.313 249.092C151.993 248.961 152.696 249.105 153.27 249.492" stroke="#353535" stroke-width="0.5" stroke-linecap="round" stroke-linejoin="round"/>
<path d="M160.714 250.189C160.324 249.617 159.724 249.222 159.045 249.092C158.365 248.961 157.662 249.105 157.088 249.492" stroke="#353535" stroke-width="0.5" stroke-linecap="round" stroke-linejoin="round"/>
<path d="M143.585 251.101L144.754 252.175C144.754 252.175 157.946 252.1 160.499 244.726C160.499 244.726 163.481 252.754 166.623 251.584C166.623 251.584 169.466 241.592 160.188 238.704C150.91 235.817 142.491 241.098 143.585 251.101Z" fill="#353535"/>
<path d="M158.783 241.613C162.669 241.613 165.819 238.461 165.819 234.572C165.819 230.683 162.669 227.531 158.783 227.531C154.897 227.531 151.747 230.683 151.747 234.572C151.747 238.461 154.897 241.613 158.783 241.613Z" fill="#353535"/>
<path d="M160.96 270.508C160.96 273.105 158.536 275.198 155.533 275.198C152.53 275.198 150.106 273.105 150.106 270.508C150.106 267.91 152.541 265.828 155.533 265.828C158.526 265.828 160.96 267.921 160.96 270.508Z" fill="#FFDBD9"/>
<path d="M152.819 253.248C152.819 253.946 152.433 254.504 151.94 254.504C151.447 254.504 151.06 253.946 151.06 253.248C151.06 252.551 151.457 252.003 151.94 252.003C152.423 252.003 152.819 252.518 152.819 253.248Z" fill="#353535"/>
<path d="M158.461 254.504C158.947 254.504 159.341 253.947 159.341 253.259C159.341 252.571 158.947 252.014 158.461 252.014C157.975 252.014 157.582 252.571 157.582 253.259C157.582 253.947 157.975 254.504 158.461 254.504Z" fill="#353535"/>
<path d="M181.403 116.708C188.311 122.855 191.764 131.316 191.764 142.093C191.764 152.869 188.336 161.005 181.479 166.5C174.636 172.103 165.558 174.905 154.246 174.905L154.107 177.556C153.967 180.232 152.806 182.752 150.865 184.597C148.923 186.442 146.348 187.472 143.671 187.474C140.954 187.472 138.344 186.413 136.394 184.519C134.444 182.626 133.307 180.048 133.224 177.33L132.923 167.069C132.896 166.115 133.06 165.165 133.407 164.275C133.753 163.385 134.274 162.574 134.939 161.89C135.604 161.205 136.4 160.661 137.279 160.29C138.157 159.918 139.102 159.727 140.056 159.728C149.516 159.728 156.799 158.475 161.904 155.971C167.01 153.466 169.566 148.894 169.573 142.254C169.573 137.466 168.186 133.66 165.411 130.833C162.637 128.007 158.858 126.576 154.074 126.54C149.069 126.54 145.183 127.903 142.416 130.629C141.12 131.901 140.105 133.429 139.434 135.116C138.641 137.115 137.266 138.829 135.487 140.037C133.709 141.245 131.608 141.89 129.459 141.889C127.658 141.897 125.884 141.451 124.3 140.593C122.717 139.734 121.375 138.49 120.398 136.976C119.421 135.462 118.841 133.726 118.711 131.928C118.582 130.13 118.906 128.329 119.656 126.69C120.053 125.81 120.492 124.94 120.964 124.093C123.976 118.829 128.492 114.586 133.932 111.91C140.195 108.844 147.104 107.331 154.074 107.499C165.394 107.491 174.503 110.561 181.403 116.708ZM133.277 222.647C132.013 221.4 131.009 219.913 130.324 218.274C129.638 216.635 129.285 214.876 129.285 213.1C129.285 211.323 129.638 209.564 130.324 207.925C131.009 206.286 132.013 204.8 133.277 203.552C134.64 202.271 136.243 201.272 137.994 200.614C139.745 199.957 141.609 199.653 143.477 199.72C145.308 199.659 147.133 199.966 148.843 200.625C150.553 201.283 152.113 202.278 153.431 203.552C155.94 206.095 157.347 209.526 157.347 213.1C157.347 216.674 155.94 220.104 153.431 222.647C152.115 223.924 150.556 224.923 148.845 225.583C147.135 226.243 145.309 226.552 143.477 226.49C141.608 226.558 139.743 226.254 137.992 225.594C136.24 224.934 134.638 223.933 133.277 222.647Z" fill="white"/>
<path d="M110.904 33.6848C111.759 34.4693 112.43 35.4331 112.869 36.5075C113.309 37.5819 113.506 38.7401 113.446 39.8994C113.512 41.0247 113.317 42.1501 112.876 43.1874C112.435 44.2246 111.76 45.1456 110.904 45.878C108.99 47.3272 106.629 48.0567 104.232 47.9388V48.5828C104.196 49.2387 103.911 49.8559 103.434 50.3072C102.957 50.7585 102.325 51.0095 101.669 51.0086C101.012 51.0122 100.378 50.762 99.9009 50.3102C99.4234 49.8583 99.1384 49.2396 99.1053 48.5828V46.0175C99.0981 45.7833 99.138 45.55 99.2227 45.3315C99.3073 45.113 99.4349 44.9137 99.598 44.7455C99.7611 44.5774 99.9562 44.4437 100.172 44.3524C100.388 44.2611 100.619 44.2142 100.854 44.2143C102.688 44.31 104.52 43.9946 106.216 43.2912C106.811 42.9833 107.3 42.5058 107.623 41.9192C107.946 41.3325 108.087 40.6632 108.029 39.996C108.055 39.4846 107.979 38.973 107.804 38.4918C107.629 38.0105 107.359 37.5694 107.01 37.1946C106.647 36.8329 106.212 36.5507 105.734 36.3659C105.256 36.1812 104.744 36.0979 104.232 36.1213C103.714 36.0895 103.195 36.1615 102.705 36.3329C102.215 36.5043 101.765 36.7717 101.379 37.1195C101.06 37.4191 100.811 37.7856 100.65 38.1928C100.452 38.68 100.114 39.0972 99.6784 39.3916C99.2429 39.6859 98.7298 39.844 98.2043 39.8458C97.7639 39.8452 97.3307 39.7343 96.9441 39.5233C96.5574 39.3122 96.2298 39.0076 95.9909 38.6374C95.7521 38.2671 95.6096 37.8429 95.5766 37.4034C95.5436 36.9639 95.621 36.5231 95.8018 36.1213C95.8983 35.9049 96.0057 35.6935 96.1236 35.488C96.8737 34.191 97.9943 33.1481 99.3413 32.4933C100.876 31.7454 102.568 31.3773 104.275 31.42C106.69 31.3178 109.055 32.126 110.904 33.6848ZM99.1053 59.6275C98.7966 59.3212 98.5515 58.9567 98.3843 58.5551C98.2171 58.1535 98.131 57.7227 98.131 57.2876C98.131 56.8526 98.2171 56.4218 98.3843 56.0202C98.5515 55.6186 98.7966 55.2541 99.1053 54.9477C99.4395 54.6345 99.8325 54.3907 100.261 54.2305C100.69 54.0702 101.147 53.9966 101.604 54.0139C102.052 53.998 102.498 54.0725 102.917 54.2329C103.335 54.3933 103.717 54.6365 104.039 54.9477C104.657 55.5693 105.005 56.4106 105.005 57.2876C105.005 58.1646 104.657 59.006 104.039 59.6275C103.719 59.9428 103.338 60.1892 102.919 60.3516C102.501 60.5141 102.053 60.5891 101.604 60.5721C101.146 60.5898 100.688 60.5153 100.259 60.3531C99.83 60.1909 99.4376 59.9441 99.1053 59.6275Z" fill="#98C6F5"/>
<path d="M340.433 73.098C357.895 88.6472 366.629 110.046 366.636 137.295C366.636 164.279 357.973 184.855 340.648 199.023C323.322 213.191 300.369 220.289 271.789 220.318L271.435 227.037C271.083 233.803 268.15 240.176 263.241 244.841C258.331 249.507 251.82 252.109 245.05 252.11C238.178 252.108 231.577 249.427 226.647 244.636C221.718 239.845 218.847 233.321 218.643 226.447L217.871 200.493C217.802 198.081 218.217 195.68 219.091 193.431C219.966 191.182 221.282 189.132 222.962 187.401C224.642 185.67 226.651 184.293 228.872 183.353C231.092 182.412 233.479 181.926 235.89 181.924C259.815 181.924 278.246 178.758 291.181 172.425C304.116 166.093 310.58 154.508 310.573 137.67C310.573 125.563 307.066 115.928 300.051 108.765C293.036 101.602 283.476 98.0246 271.37 98.0318C258.721 98.0318 248.889 101.474 241.875 108.357C238.606 111.579 236.048 115.452 234.367 119.724C232.356 124.784 228.875 129.125 224.375 132.186C219.874 135.247 214.56 136.888 209.119 136.898C204.575 136.892 200.105 135.748 196.116 133.57C192.128 131.393 188.747 128.251 186.283 124.43C183.819 120.61 182.349 116.234 182.008 111.699C181.667 107.165 182.466 102.618 184.332 98.4719C185.34 96.225 186.445 94.0318 187.646 91.8922C195.068 78.6758 206.001 68.3538 220.445 60.9262C234.889 53.4987 251.871 49.7849 271.392 49.7849C299.979 49.7778 322.993 57.5488 340.433 73.098ZM218.772 341.048C215.572 337.894 213.03 334.134 211.296 329.988C209.561 325.842 208.668 321.392 208.668 316.898C208.668 312.403 209.561 307.953 211.296 303.807C213.03 299.661 215.572 295.901 218.772 292.747C225.507 286.307 234.088 283.087 244.513 283.087C254.696 283.087 263.087 286.307 269.687 292.747C276.04 299.177 279.603 307.855 279.603 316.898C279.603 325.94 276.04 334.618 269.687 341.048C263.08 347.488 254.688 350.708 244.513 350.708C234.095 350.737 225.515 347.517 218.772 341.048Z" fill="#4A95E3"/>
<path d="M386.661 34.3931C391.494 38.6865 393.911 44.6113 393.911 52.1677C393.911 59.7241 391.516 65.4164 386.725 69.2446C381.927 73.1659 375.57 75.1266 367.655 75.1266L367.558 76.9834C367.459 78.8553 366.647 80.6179 365.288 81.9079C363.929 83.1979 362.127 83.9171 360.254 83.9173C358.354 83.9154 356.53 83.1739 355.167 81.8498C353.803 80.5256 353.008 78.7227 352.95 76.8224L352.735 69.6418C352.717 68.9742 352.832 68.3096 353.074 67.6873C353.316 67.0649 353.681 66.4975 354.145 66.0183C354.61 65.5391 355.166 65.1579 355.781 64.8972C356.395 64.6365 357.056 64.5016 357.723 64.5004C364.337 64.5004 369.435 63.6239 373.018 61.8707C376.6 60.1176 378.388 56.919 378.381 52.275C378.453 50.8172 378.233 49.3596 377.734 47.9881C377.235 46.6166 376.466 45.359 375.474 44.2893C374.426 43.275 373.18 42.4875 371.815 41.976C370.449 41.4645 368.993 41.2399 367.537 41.3162C364.04 41.3162 361.316 42.2715 359.385 44.1713C358.476 45.0613 357.763 46.1327 357.294 47.3162C356.739 48.7162 355.777 49.9171 354.532 50.763C353.287 51.609 351.816 52.061 350.311 52.0604C349.051 52.0664 347.809 51.7547 346.7 51.154C345.592 50.5533 344.652 49.6829 343.968 48.6232C343.284 47.5634 342.878 46.3484 342.787 45.0901C342.696 43.8318 342.923 42.5709 343.447 41.4235C343.726 40.8117 344.037 40.1999 344.369 39.6096C346.463 35.8998 349.625 32.9075 353.443 31.0228C357.825 28.8758 362.659 27.8155 367.537 27.9316C375.452 27.9387 381.827 30.0926 386.661 34.3931ZM352.982 108.54C352.098 107.666 351.397 106.626 350.918 105.479C350.439 104.332 350.193 103.101 350.193 101.858C350.193 100.615 350.439 99.3845 350.918 98.2376C351.397 97.0906 352.098 96.0502 352.982 95.1767C353.936 94.2783 355.059 93.5784 356.285 93.1178C357.511 92.6571 358.817 92.4449 360.125 92.4933C361.406 92.4488 362.683 92.6635 363.879 93.1246C365.075 93.5857 366.166 94.2837 367.086 95.1767C368.84 96.9578 369.823 99.3578 369.823 101.858C369.823 104.359 368.84 106.759 367.086 108.54C366.166 109.433 365.075 110.131 363.879 110.592C362.683 111.053 361.406 111.268 360.125 111.223C358.817 111.272 357.511 111.059 356.285 110.599C355.059 110.138 353.936 109.438 352.982 108.54Z" fill="#E9F0F6"/>
<path d="M444.129 205.699C445.456 206.92 446.497 208.419 447.179 210.089C447.861 211.758 448.168 213.558 448.076 215.359C448.076 219.416 446.771 222.515 444.161 224.654C441.551 226.794 438.08 227.853 433.747 227.831V228.905C433.694 229.923 433.254 230.883 432.515 231.586C431.777 232.289 430.797 232.682 429.778 232.683C428.743 232.683 427.748 232.28 427.005 231.559C426.262 230.837 425.829 229.854 425.799 228.819L425.681 224.912C425.669 224.548 425.731 224.186 425.862 223.846C425.993 223.507 426.191 223.197 426.445 222.936C426.698 222.675 427.001 222.467 427.336 222.325C427.671 222.183 428.031 222.11 428.394 222.11C431.24 222.255 434.082 221.768 436.718 220.683C438.67 219.728 439.635 217.989 439.635 215.456C439.674 214.663 439.554 213.87 439.284 213.123C439.013 212.377 438.596 211.692 438.058 211.109C437.49 210.562 436.817 210.136 436.08 209.857C435.342 209.578 434.556 209.453 433.768 209.488C432.962 209.439 432.154 209.552 431.391 209.819C430.629 210.086 429.927 210.503 429.328 211.044C428.835 211.533 428.448 212.117 428.191 212.762C427.888 213.522 427.364 214.174 426.687 214.633C426.011 215.092 425.212 215.338 424.394 215.338C423.709 215.337 423.036 215.165 422.435 214.838C421.835 214.51 421.325 214.037 420.954 213.461C420.583 212.886 420.362 212.227 420.311 211.544C420.259 210.861 420.38 210.177 420.661 209.552C420.808 209.215 420.973 208.885 421.155 208.565C422.299 206.548 424.021 204.922 426.099 203.896C428.485 202.732 431.115 202.158 433.768 202.221C437.536 202.037 441.234 203.279 444.129 205.699ZM425.81 246.078C425.328 245.603 424.945 245.036 424.684 244.412C424.423 243.787 424.288 243.117 424.288 242.44C424.288 241.763 424.423 241.092 424.684 240.467C424.945 239.843 425.328 239.276 425.81 238.801C426.327 238.312 426.938 237.931 427.604 237.68C428.271 237.43 428.981 237.314 429.692 237.341C430.389 237.32 431.082 237.438 431.732 237.689C432.383 237.94 432.976 238.318 433.478 238.801C434.433 239.771 434.969 241.078 434.969 242.44C434.969 243.801 434.433 245.108 433.478 246.078C432.978 246.564 432.384 246.943 431.734 247.194C431.083 247.444 430.389 247.562 429.692 247.538C428.981 247.565 428.271 247.45 427.604 247.199C426.938 246.948 426.327 246.567 425.81 246.078Z" fill="#F7C737"/>
</g>
<defs>
<linearGradient id="paint0_linear_1_391" x1="198.192" y1="7.70972" x2="198.192" y2="124.234" gradientUnits="userSpaceOnUse">
<stop stop-color="#7BC58C"/>
<stop offset="1" stop-color="#7BC58C" stop-opacity="0"/>
</linearGradient>
<linearGradient id="paint1_linear_1_391" x1="154.75" y1="73.3877" x2="154.75" y2="254.783" gradientUnits="userSpaceOnUse">
<stop stop-color="#C1E0FF"/>
<stop offset="1" stop-color="#C1E0FF" stop-opacity="0"/>
</linearGradient>
<linearGradient id="paint2_linear_1_391" x1="364.855" y1="0.25" x2="364.855" y2="129.159" gradientUnits="userSpaceOnUse">
<stop stop-color="#98C6F5"/>
<stop offset="1" stop-color="#98C6F5" stop-opacity="0"/>
</linearGradient>
<linearGradient id="paint3_linear_1_391" x1="293.777" y1="232.913" x2="440.228" y2="379.258" gradientUnits="userSpaceOnUse">
<stop stop-color="white"/>
<stop offset="1" stop-color="white" stop-opacity="0"/>
</linearGradient>
<linearGradient id="paint4_linear_1_391" x1="418.496" y1="316.314" x2="418.496" y2="450.154" gradientUnits="userSpaceOnUse">
<stop stop-color="#7BC58C"/>
<stop offset="1" stop-color="#7BC58C" stop-opacity="0"/>
</linearGradient>
<linearGradient id="paint5_linear_1_391" x1="111.823" y1="299.968" x2="111.823" y2="442.35" gradientUnits="userSpaceOnUse">
<stop stop-color="#7BC58C"/>
<stop offset="1" stop-color="#7BC58C" stop-opacity="0"/>
</linearGradient>
<linearGradient id="paint6_linear_1_391" x1="51.4323" y1="357.954" x2="51.4323" y2="450.99" gradientUnits="userSpaceOnUse">
<stop stop-color="#7BC58C"/>
<stop offset="1" stop-color="#7BC58C" stop-opacity="0"/>
</linearGradient>
<linearGradient id="paint7_linear_1_391" x1="367.243" y1="110.802" x2="367.243" y2="212.953" gradientUnits="userSpaceOnUse">
<stop stop-color="#7BC58C"/>
<stop offset="1" stop-color="#7BC58C" stop-opacity="0"/>
</linearGradient>
<clipPath id="clip0_1_391">
<rect width="474" height="468" fill="white" transform="translate(0 0.25)"/>
</clipPath>
</defs>
</svg>
