<svg width="15" height="12" viewBox="0 0 15 12" fill="none" xmlns="http://www.w3.org/2000/svg">
<path d="M13.4795 4.99999H3.47949L6.76949 1.71C6.86322 1.61703 6.93761 1.50643 6.98838 1.38457C7.03915 1.26272 7.06529 1.13201 7.06529 0.999998C7.06529 0.867986 7.03915 0.737281 6.98838 0.615422C6.93761 0.493562 6.86322 0.382962 6.76949 0.289999C6.58213 0.103748 6.32868 -0.000793457 6.06449 -0.000793457C5.80031 -0.000793457 5.54685 0.103748 5.35949 0.289999L1.06949 4.58999C0.693905 4.96334 0.481725 5.47042 0.479492 5.99999C0.484359 6.5261 0.696337 7.02909 1.06949 7.39999L5.35949 11.7C5.45273 11.7926 5.56329 11.8659 5.68486 11.9157C5.80643 11.9656 5.93663 11.991 6.06803 11.9905C6.19942 11.9901 6.32944 11.9637 6.45065 11.913C6.57187 11.8623 6.68191 11.7882 6.77449 11.695C6.86707 11.6017 6.94038 11.4912 6.99024 11.3696C7.04009 11.248 7.06551 11.1178 7.06505 10.9864C7.06458 10.8551 7.03824 10.725 6.98753 10.6038C6.93682 10.4826 6.86273 10.3726 6.76949 10.28L3.47949 6.99999H13.4795C13.7447 6.99999 13.9991 6.89463 14.1866 6.7071C14.3741 6.51956 14.4795 6.26521 14.4795 5.99999C14.4795 5.73478 14.3741 5.48042 14.1866 5.29289C13.9991 5.10535 13.7447 4.99999 13.4795 4.99999Z" fill="#374957"/>
</svg>
