<svg width="15" height="12" viewBox="0 0 15 12" fill="none" xmlns="http://www.w3.org/2000/svg">
<path d="M14.4796 6C14.4747 5.4739 14.2627 4.9709 13.8896 4.6L9.59957 0.300009C9.41221 0.113758 9.15875 0.00921631 8.89457 0.00921631C8.63038 0.00921631 8.37693 0.113758 8.18957 0.300009C8.09584 0.392972 8.02145 0.503573 7.97068 0.625432C7.91991 0.747291 7.89377 0.877996 7.89377 1.01001C7.89377 1.14202 7.91991 1.27272 7.97068 1.39458C8.02145 1.51644 8.09584 1.62704 8.18957 1.72001L11.4796 5H1.47957C1.21435 5 0.959998 5.10536 0.772462 5.2929C0.584926 5.48043 0.479568 5.73479 0.479568 6C0.479568 6.26522 0.584926 6.51957 0.772462 6.70711C0.959998 6.89464 1.21435 7 1.47957 7H11.4796L8.18957 10.29C8.00126 10.477 7.89495 10.7311 7.89401 10.9965C7.89307 11.2618 7.99759 11.5167 8.18457 11.705C8.37155 11.8933 8.62567 11.9996 8.89103 12.0006C9.1564 12.0015 9.41126 11.897 9.59957 11.71L13.8896 7.41C14.2652 7.03665 14.4773 6.52958 14.4796 6Z" fill="#374957"/>
</svg>
