<svg width="22" height="24" viewBox="0 0 22 24" fill="none" xmlns="http://www.w3.org/2000/svg">
<path d="M8.99991 17.5C9.00117 16.2264 9.37653 14.9813 10.0794 13.9192C10.7822 12.8572 11.7816 12.025 12.9533 11.526C14.1251 11.0271 15.4176 10.8833 16.6704 11.1127C17.9231 11.342 19.0809 11.9343 19.9999 12.816V3C19.9999 2.20435 19.6838 1.44129 19.1212 0.87868C18.5586 0.31607 17.7956 0 16.9999 0L4.99991 0C3.67431 0.00158786 2.40347 0.528882 1.46613 1.46622C0.52879 2.40356 0.0014963 3.67441 -9.15527e-05 5V19C0.0014963 20.3256 0.52879 21.5964 1.46613 22.5338C2.40347 23.4711 3.67431 23.9984 4.99991 24H15.4999C13.776 24 12.1227 23.3152 10.9037 22.0962C9.68473 20.8772 8.99991 19.2239 8.99991 17.5ZM4.99991 7C4.99991 6.73478 5.10527 6.48043 5.2928 6.29289C5.48034 6.10536 5.73469 6 5.99991 6H13.9999C14.2651 6 14.5195 6.10536 14.707 6.29289C14.8946 6.48043 14.9999 6.73478 14.9999 7C14.9999 7.26522 14.8946 7.51957 14.707 7.70711C14.5195 7.89464 14.2651 8 13.9999 8H5.99991C5.73469 8 5.48034 7.89464 5.2928 7.70711C5.10527 7.51957 4.99991 7.26522 4.99991 7ZM21.7069 23.707C21.5194 23.8945 21.2651 23.9998 20.9999 23.9998C20.7347 23.9998 20.4804 23.8945 20.2929 23.707L17.8859 21.3C17.1731 21.755 16.3455 21.9977 15.4999 22C14.6099 22 13.7399 21.7361 12.9998 21.2416C12.2598 20.7471 11.683 20.0443 11.3425 19.2221C11.0019 18.3998 10.9127 17.495 11.0864 16.6221C11.26 15.7492 11.6886 14.9474 12.3179 14.318C12.9473 13.6887 13.7491 13.2601 14.622 13.0865C15.4949 12.9128 16.3997 13.0019 17.222 13.3425C18.0443 13.6831 18.7471 14.2599 19.2415 14.9999C19.736 15.74 19.9999 16.61 19.9999 17.5C19.9977 18.3456 19.7549 19.1732 19.2999 19.886L21.7069 22.293C21.8944 22.4805 21.9997 22.7348 21.9997 23C21.9997 23.2652 21.8944 23.5195 21.7069 23.707Z" fill="#A5A5A5"/>
</svg>
