<svg width="24" height="24" viewBox="0 0 24 24" fill="none" xmlns="http://www.w3.org/2000/svg">
<path d="M16 4.01813C17.1157 4.06354 18.1966 4.4194 19.1211 5.04568C20.0456 5.67196 20.777 6.54381 21.233 7.56313L22.761 11.0001H17C16.7348 11.0001 16.4804 10.8948 16.2929 10.7072C16.1053 10.5197 16 10.2653 16 10.0001V4.01813ZM8.94199 21.0001C8.97863 21.1643 8.99806 21.3319 8.99999 21.5001C8.99999 22.1632 8.7366 22.7991 8.26776 23.2679C7.79892 23.7367 7.16303 24.0001 6.49999 24.0001C5.83695 24.0001 5.20107 23.7367 4.73223 23.2679C4.26338 22.7991 3.99999 22.1632 3.99999 21.5001C4.00192 21.3319 4.02136 21.1643 4.05799 21.0001H8.94199ZM19.942 21.0001C19.9786 21.1643 19.9981 21.3319 20 21.5001C20 22.1632 19.7366 22.7991 19.2678 23.2679C18.7989 23.7367 18.163 24.0001 17.5 24.0001C16.837 24.0001 16.2011 23.7367 15.7322 23.2679C15.2634 22.7991 15 22.1632 15 21.5001C15.0019 21.3319 15.0214 21.1643 15.058 21.0001H19.942ZM24 16.1221C24.0041 16.5116 23.9283 16.8978 23.7774 17.2569C23.6265 17.616 23.4036 17.9404 23.1225 18.2101C22.8414 18.4797 22.5081 18.6889 22.1431 18.8248C21.778 18.9607 21.389 19.0204 21 19.0001H2.99999C2.20434 19.0001 1.44128 18.6841 0.878672 18.1215C0.316063 17.5588 -7.62939e-06 16.7958 -7.62939e-06 16.0001L-7.62939e-06 9.00013C0.00158023 7.67453 0.528874 6.40369 1.46621 5.46635C2.40355 4.52901 3.6744 4.00172 4.99999 4.00013H9.19999L9.85999 1.35813C9.95734 0.97038 10.1814 0.626258 10.4966 0.380385C10.8119 0.134511 11.2002 0.000976563 11.6 0.000976562C11.9998 0.000976562 12.3881 0.134511 12.7033 0.380385C13.0186 0.626258 13.2426 0.97038 13.34 1.35813L14 4.00013V10.0001C14 10.7958 14.3161 11.5588 14.8787 12.1214C15.4413 12.6841 16.2043 13.0001 17 13.0001H23.537C23.7931 14.0231 23.9482 15.0688 24 16.1221ZM9.99999 12.0001C9.99999 11.7349 9.89464 11.4806 9.7071 11.293C9.51956 11.1055 9.26521 11.0001 8.99999 11.0001H7.99999V10.0001C7.99999 9.73491 7.89464 9.48056 7.7071 9.29302C7.51956 9.10549 7.26521 9.00013 6.99999 9.00013C6.73478 9.00013 6.48042 9.10549 6.29289 9.29302C6.10535 9.48056 5.99999 9.73491 5.99999 10.0001V11.0001H4.99999C4.73478 11.0001 4.48042 11.1055 4.29289 11.293C4.10535 11.4806 3.99999 11.7349 3.99999 12.0001C3.99999 12.2653 4.10535 12.5197 4.29289 12.7072C4.48042 12.8948 4.73478 13.0001 4.99999 13.0001H5.99999V14.0001C5.99999 14.2653 6.10535 14.5197 6.29289 14.7072C6.48042 14.8948 6.73478 15.0001 6.99999 15.0001C7.26521 15.0001 7.51956 14.8948 7.7071 14.7072C7.89464 14.5197 7.99999 14.2653 7.99999 14.0001V13.0001H8.99999C9.26521 13.0001 9.51956 12.8948 9.7071 12.7072C9.89464 12.5197 9.99999 12.2653 9.99999 12.0001Z" fill="#A5A5A5"/>
</svg>
