<svg width="109" height="18" viewBox="0 0 109 18" fill="none" xmlns="http://www.w3.org/2000/svg">
<g clip-path="url(#clip0_1_312)">
<path d="M108.254 15.6142L102.88 8.4689L107.619 2.11186L108.386 1.0818H107.073H104.79H104.445L104.244 1.35237L100.903 5.84132L97.5262 1.34997L97.3256 1.0818H96.9822H94.7031H93.3857L94.1596 2.1133L98.9358 8.4847L93.6285 15.6166L92.862 16.6461H94.1735H96.4397H96.7855L96.9862 16.3761L100.907 11.1142L104.855 16.3775L105.056 16.6461H105.398H107.71H109.03L108.254 15.6142Z" fill="#981B29"/>
<path d="M90.4482 1.0818H88.5759H87.9035V1.73163V2.63383C87.4086 2.19231 86.8745 1.82501 86.3047 1.53625C85.2311 0.991295 84.0197 0.714506 82.7023 0.714506C80.4276 0.714506 78.4557 1.51614 76.839 3.0969C75.2249 4.6767 74.4073 6.60417 74.4073 8.8247C74.4073 11.0874 75.2174 13.0374 76.8163 14.621C78.4191 16.2075 80.381 17.0125 82.6487 17.0125C83.9221 17.0125 85.1146 16.752 86.1932 16.2381C86.7942 15.9518 87.3665 15.5845 87.9025 15.1396V15.9963V16.6461H88.5749H90.4472H91.119V15.9963V1.73163V1.0818H90.4482ZM82.8449 14.0219C81.9407 14.0219 81.0821 13.7944 80.2939 13.3462C79.5031 12.8961 78.863 12.2577 78.3918 11.4465C77.9176 10.6325 77.6779 9.77 77.6779 8.88313C77.6779 7.98955 77.9157 7.1271 78.3854 6.32067C78.858 5.50851 79.4739 4.89603 80.2706 4.44876C81.0573 4.00867 81.9288 3.78456 82.8593 3.78456C84.3278 3.78456 85.5298 4.26487 86.5326 5.25279C87.5369 6.2431 88.0259 7.44794 88.0259 8.93437C88.0259 9.89929 87.8025 10.7761 87.36 11.5385C86.9161 12.3032 86.2973 12.8946 85.4689 13.3472C84.6454 13.7944 83.7625 14.0219 82.8449 14.0219Z" fill="#981B29"/>
<path d="M72.0445 3.95025C71.615 2.93887 70.9446 2.1382 70.0538 1.56977C69.1674 1.00279 68.1354 0.714506 66.985 0.714506C65.7696 0.714506 64.6197 1.04206 63.5658 1.68758C62.8583 2.12191 62.2281 2.69513 61.6801 3.39859C61.4755 3.01932 61.2506 2.69608 61.0038 2.42456C60.5326 1.90355 59.9222 1.4831 59.1914 1.17566C58.4691 0.87014 57.6942 0.714506 56.8871 0.714506C55.7089 0.714506 54.5728 1.02817 53.5121 1.64783C53.1672 1.85518 52.8278 2.11329 52.4949 2.42217V1.73163V1.0818H51.8226H49.9225H49.2502V1.73163V15.9963V16.6461H49.9225H51.8226H52.4949V15.9963V9.95149C52.4949 8.26298 52.6623 7.00834 52.9938 6.22442C53.3134 5.47115 53.789 4.89028 54.449 4.44924C55.1054 4.01011 55.7852 3.79653 56.5284 3.79653C57.1522 3.79653 57.6704 3.94115 58.1123 4.23805C58.5479 4.5316 58.8451 4.91183 59.0195 5.39836C59.1543 5.77284 59.3153 6.64774 59.3153 8.69253V15.9958V16.6457H59.9871H61.8862H62.5586V15.9958V10.4103C62.5586 8.45501 62.7201 7.06101 63.0406 6.268C63.3458 5.50707 63.815 4.9171 64.4735 4.46313C65.125 4.0149 65.8231 3.79653 66.6049 3.79653C67.2238 3.79653 67.7559 3.93684 68.1864 4.21315C68.616 4.48994 68.9103 4.84096 69.0862 5.28679C69.2199 5.62631 69.379 6.4107 69.379 8.20791V15.9963V16.6461H70.0508H71.99H72.6619V15.9963V8.20791C72.6619 6.32163 72.4602 4.92907 72.0445 3.95025Z" fill="#981B29"/>
<path d="M32.1565 7.44746C30.7925 6.76842 30.2485 6.32067 30.0325 6.06448C29.7411 5.72831 29.6019 5.39741 29.6019 5.04879C29.6019 4.66329 29.7649 4.33 30.0998 4.02927C30.4467 3.72039 30.8534 3.57051 31.3414 3.57051C32.1713 3.57051 33.0557 4.00532 33.9693 4.86107L34.332 5.20107L34.6833 4.85006L35.9031 3.63037L36.2539 3.27935L35.8907 2.94079C34.4227 1.57217 32.9239 0.877802 31.4366 0.877802C30.1375 0.877802 29.044 1.2858 28.1859 2.09031C27.3223 2.89865 26.8843 3.92535 26.8843 5.14121C26.8843 6.0707 27.1588 6.9116 27.6999 7.64045C28.2315 8.35636 29.1788 9.04881 30.5958 9.75659C32.0618 10.4783 32.6227 10.9179 32.8352 11.1602C33.1107 11.4791 33.246 11.8354 33.246 12.2472C33.246 12.7462 33.0374 13.1734 32.6083 13.5531C32.1644 13.9424 31.6392 14.133 31.0035 14.133C30.0726 14.133 29.1609 13.6551 28.2959 12.7108L27.9169 12.2984L27.5398 12.7117L26.3453 14.0229L26.0688 14.3265L26.3265 14.6449C26.8814 15.3326 27.5889 15.8771 28.4297 16.2654C29.2675 16.6538 30.1613 16.8516 31.0843 16.8516C32.4934 16.8516 33.6864 16.3933 34.6313 15.4906C35.5786 14.5879 36.0592 13.4693 36.0592 12.1682C36.0592 11.2406 35.7758 10.3911 35.2159 9.64166C34.6511 8.9109 33.6517 8.19642 32.1565 7.44746Z" fill="#87888A"/>
<path d="M43.7105 7.44746C42.346 6.7689 41.802 6.32116 41.585 6.06448C41.2951 5.72927 41.1554 5.39837 41.1554 5.04879C41.1554 4.6633 41.3184 4.32904 41.6524 4.02879C41.9987 3.72039 42.4054 3.57003 42.894 3.57003C43.7243 3.57003 44.6082 4.00437 45.5209 4.86059L45.883 5.20107L46.2338 4.85006L47.4551 3.63037L47.8059 3.27935L47.4427 2.94031C45.9757 1.57169 44.4769 0.877323 42.9886 0.877323C41.6895 0.877323 40.5956 1.28532 39.7374 2.08983C38.8738 2.89865 38.4359 3.92535 38.4359 5.14073C38.4359 6.07214 38.7103 6.91256 39.2519 7.64045C39.782 8.35493 40.7293 9.04738 42.1473 9.75611C43.6153 10.4783 44.1757 10.9183 44.3878 11.1597C44.6627 11.4781 44.7975 11.8349 44.7975 12.2467C44.7975 12.7462 44.5889 13.1738 44.1599 13.5521C43.7164 13.9419 43.1917 14.1325 42.5551 14.1325C41.6112 14.1325 40.7254 13.6666 39.8464 12.7103L39.4674 12.2985L39.0909 12.7117L37.8973 14.0229L37.6213 14.326L37.878 14.644C38.4324 15.3316 39.1394 15.8766 39.9807 16.265C40.819 16.6533 41.7128 16.8511 42.6358 16.8511C44.0434 16.8511 45.237 16.3933 46.1838 15.4906C47.1301 14.5875 47.6097 13.4688 47.6097 12.1677C47.6097 11.2373 47.3258 10.3873 46.7659 9.64071C46.2051 8.91186 45.2063 8.1969 43.7105 7.44746Z" fill="#87888A"/>
<path d="M23.4399 3.42397C21.8515 1.73355 19.8241 0.877802 17.4137 0.877802C14.9924 0.877802 12.9601 1.73834 11.3736 3.4369C9.93533 4.97313 9.20602 6.812 9.20602 8.90276C9.20602 11.0136 9.97646 12.8836 11.495 14.4596C13.0225 16.0461 15.0142 16.8501 17.4142 16.8501C19.8048 16.8501 21.7921 16.0456 23.3205 14.4596C24.8391 12.8841 25.609 11.0146 25.609 8.90276C25.6085 6.80338 24.8787 4.95972 23.4399 3.42397Z" fill="#87888A"/>
<path d="M12.0613 7.34163H15.8015V3.70746H18.9566V7.34163H22.7176V10.3916H18.9566V14.0075H15.8015V10.3916H12.0613V7.34163Z" fill="white"/>
<path d="M9.71486 1.05499C9.40818 0.943408 8.44006 0.725042 8.17053 0.683858C7.88862 0.642675 7.52149 0.621605 7.08004 0.621605C6.18525 0.621605 5.33009 0.893126 4.53885 1.42851C3.9884 1.79915 3.52614 2.25025 3.15703 2.77462V0.980281H-0.0688782V16.7146H3.34332V9.52913C3.29724 7.48625 3.57915 6.07597 4.22869 5.08949C4.84157 4.15856 5.46684 3.53794 6.52215 3.53794C6.73173 3.53794 6.95964 3.56284 7.19845 3.61265C7.45113 3.66484 7.5309 3.69549 7.68994 3.75487L8.18738 3.97803L10.0022 1.15986L9.71486 1.05499Z" fill="#87888A"/>
</g>
<defs>
<clipPath id="clip0_1_312">
<rect width="109" height="17" fill="white" transform="translate(0 0.25)"/>
</clipPath>
</defs>
</svg>
