<svg width="407" height="407" viewBox="0 0 407 407" fill="none" xmlns="http://www.w3.org/2000/svg">
<mask id="mask0_1_162" style="mask-type:alpha" maskUnits="userSpaceOnUse" x="0" y="0" width="407" height="407">
<circle cx="203.5" cy="203.5" r="203.5" fill="#C4C4C4"/>
</mask>
<g mask="url(#mask0_1_162)">
<path d="M-51.6276 20.7078C-51.6276 20.7078 148.126 -3.84046 199.464 -102.099C248.368 -195.705 450.879 -216.765 450.879 -216.765" stroke="#E9F0F6" stroke-width="2" stroke-miterlimit="10" stroke-linecap="round"/>
<path d="M-51.6276 43.9642C-51.6276 43.9642 169.375 17.2193 226.146 -90.9223C280.16 -193.961 504.163 -216.765 504.163 -216.765" stroke="#E9F0F6" stroke-width="2" stroke-miterlimit="10" stroke-linecap="round"/>
<path d="M-51.6276 67.2206C-51.6276 67.2206 190.624 38.3439 252.747 -79.8109C311.952 -192.217 557.447 -216.765 557.447 -216.765" stroke="#E9F0F6" stroke-width="2" stroke-miterlimit="10" stroke-linecap="round"/>
<path d="M-51.6276 90.5419C-51.6276 90.5419 211.791 59.5334 279.43 -68.5707C343.744 -190.537 610.65 -216.765 610.65 -216.765" stroke="#E9F0F6" stroke-width="2" stroke-miterlimit="10" stroke-linecap="round"/>
<path d="M-51.6276 113.796C-51.6276 113.796 233.04 80.6579 306.032 -57.3944C375.535 -188.793 663.934 -216.765 663.934 -216.765" stroke="#E9F0F6" stroke-width="2" stroke-miterlimit="10" stroke-linecap="round"/>
<path d="M-51.6276 137.117C-51.6276 137.117 254.288 101.782 332.714 -46.2187C407.328 -187.049 717.217 -216.765 717.217 -216.765" stroke="#E9F0F6" stroke-width="2" stroke-miterlimit="10" stroke-linecap="round"/>
<path d="M-51.6276 160.376C-51.6276 160.376 275.456 122.907 359.315 -35.0424C439.119 -185.369 770.5 -216.765 770.5 -216.765" stroke="#E9F0F6" stroke-width="2" stroke-miterlimit="10" stroke-linecap="round"/>
<path d="M-51.6276 183.629C-51.6276 183.629 296.704 144.032 385.998 -23.9314C470.911 -183.625 823.783 -216.765 823.783 -216.765" stroke="#E9F0F6" stroke-width="2" stroke-miterlimit="10" stroke-linecap="round"/>
<path d="M-51.6276 206.951C-51.6276 206.951 317.954 165.156 412.68 -12.6908C502.703 -181.88 876.988 -216.765 876.988 -216.765" stroke="#E9F0F6" stroke-width="2" stroke-miterlimit="10" stroke-linecap="round"/>
<path d="M-51.6276 230.209C-51.6276 230.209 339.121 186.281 439.282 -1.57931C534.495 -180.201 930.272 -216.765 930.272 -216.765" stroke="#E9F0F6" stroke-width="2" stroke-miterlimit="10" stroke-linecap="round"/>
<path d="M-51.6276 253.467C-51.6276 253.467 360.37 207.405 465.964 9.59638C566.287 -178.457 983.556 -216.765 983.556 -216.765" stroke="#E9F0F6" stroke-width="2" stroke-miterlimit="10" stroke-linecap="round"/>
<path d="M-51.6276 276.788C-51.6276 276.788 381.618 228.592 492.565 20.7726C598.079 -176.712 1036.84 -216.765 1036.84 -216.765" stroke="#E9F0F6" stroke-width="2" stroke-miterlimit="10" stroke-linecap="round"/>
<path d="M-51.6276 300.042C-51.6276 300.042 402.786 249.655 519.248 31.9487C629.871 -175.033 1090.04 -216.765 1090.04 -216.765" stroke="#E9F0F6" stroke-width="2" stroke-miterlimit="10" stroke-linecap="round"/>
</g>
</svg>
