<svg width="19" height="17" viewBox="0 0 19 17" fill="none" xmlns="http://www.w3.org/2000/svg">
<path d="M13.2314 0.437378C12.38 0.450514 11.5472 0.686268 10.817 1.12083C10.0869 1.55539 9.48528 2.17338 9.07295 2.91238C8.66061 2.17338 8.059 1.55539 7.32885 1.12083C6.59871 0.686268 5.76589 0.450514 4.91451 0.437378C3.55731 0.495871 2.2786 1.08482 1.35775 2.07555C0.436906 3.06629 -0.0512266 4.37827 -1.85263e-06 5.72488C-1.85263e-06 9.13513 3.61859 12.8596 6.65349 15.3849C7.33111 15.9497 8.18785 16.2594 9.07295 16.2594C9.95805 16.2594 10.8148 15.9497 11.4924 15.3849C14.5273 12.8596 18.1459 9.13513 18.1459 5.72488C18.1971 4.37827 17.709 3.06629 16.7881 2.07555C15.8673 1.08482 14.5886 0.495871 13.2314 0.437378ZM10.5208 14.2374C10.1156 14.5759 9.60277 14.7616 9.07295 14.7616C8.54312 14.7616 8.03033 14.5759 7.62506 14.2374C3.74032 11.0041 1.51216 7.90213 1.51216 5.72488C1.46047 4.77592 1.78916 3.84518 2.42653 3.13565C3.0639 2.42613 3.95825 1.99539 4.91451 1.93738C5.87078 1.99539 6.76512 2.42613 7.40249 3.13565C8.03987 3.84518 8.36855 4.77592 8.31687 5.72488C8.31687 5.92379 8.39653 6.11456 8.53832 6.25521C8.68011 6.39586 8.87242 6.47488 9.07295 6.47488C9.27347 6.47488 9.46578 6.39586 9.60758 6.25521C9.74937 6.11456 9.82903 5.92379 9.82903 5.72488C9.77734 4.77592 10.106 3.84518 10.7434 3.13565C11.3808 2.42613 12.2751 1.99539 13.2314 1.93738C14.1876 1.99539 15.082 2.42613 15.7194 3.13565C16.3567 3.84518 16.6854 4.77592 16.6337 5.72488C16.6337 7.90213 14.4056 11.0041 10.5208 14.2344V14.2374Z" fill="#FF4A4A"/>
</svg>
