<svg width="24" height="24" viewBox="0 0 24 24" fill="none" xmlns="http://www.w3.org/2000/svg">
<path d="M0.291025 8.55206C0.0755469 8.15238 -0.0242807 7.70056 0.00274505 7.24731C0.0297708 6.79405 0.18258 6.3573 0.444025 5.98606C0.871283 5.35917 1.44347 4.84462 2.11202 4.48606L9.61303 0.582055C10.3503 0.198686 11.169 -0.00146484 12 -0.00146484C12.831 -0.00146484 13.6498 0.198686 14.387 0.582055L21.887 4.48906C22.5556 4.84762 23.1278 5.36217 23.555 5.98906C23.8165 6.36029 23.9693 6.79705 23.9963 7.25031C24.0233 7.70356 23.9235 8.15538 23.708 8.55506C23.476 8.99389 23.1281 9.36066 22.7021 9.61544C22.2761 9.87023 21.7884 10.0033 21.292 10.0001H2.70802C2.21118 10.0032 1.72303 9.86976 1.29681 9.61442C0.870596 9.35908 0.522683 8.9916 0.291025 8.55206ZM23 22.0001C23 21.4696 22.7893 20.9609 22.4142 20.5858C22.0392 20.2108 21.5305 20.0001 21 20.0001V12.0001H19V20.0001H16V12.0001H14V20.0001H10V12.0001H8.00003V20.0001H5.00003V12.0001H3.00003V20.0001C2.46959 20.0001 1.96088 20.2108 1.58581 20.5858C1.21074 20.9609 1.00002 21.4696 1.00002 22.0001C0.734808 22.0001 0.480454 22.1054 0.292918 22.2929C0.105381 22.4805 2.46239e-05 22.7348 2.46239e-05 23.0001C2.46239e-05 23.2653 0.105381 23.5196 0.292918 23.7072C0.480454 23.8947 0.734808 24.0001 1.00002 24.0001H23C23.2652 24.0001 23.5196 23.8947 23.7071 23.7072C23.8947 23.5196 24 23.2653 24 23.0001C24 22.7348 23.8947 22.4805 23.7071 22.2929C23.5196 22.1054 23.2652 22.0001 23 22.0001Z" fill="#4A95E3"/>
</svg>
