<svg width="24" height="22" viewBox="0 0 24 22" fill="none" xmlns="http://www.w3.org/2000/svg">
<path d="M19 0.000244141H5C3.67441 0.001832 2.40356 0.529126 1.46622 1.46646C0.528882 2.4038 0.00158786 3.67465 0 5.00024L0 13.0002C0.00158786 14.3258 0.528882 15.5967 1.46622 16.534C2.40356 17.4714 3.67441 17.9987 5 18.0002H11V20.0002H7C6.73478 20.0002 6.48043 20.1056 6.29289 20.2931C6.10536 20.4807 6 20.735 6 21.0002C6 21.2655 6.10536 21.5198 6.29289 21.7074C6.48043 21.8949 6.73478 22.0002 7 22.0002H17C17.2652 22.0002 17.5196 21.8949 17.7071 21.7074C17.8946 21.5198 18 21.2655 18 21.0002C18 20.735 17.8946 20.4807 17.7071 20.2931C17.5196 20.1056 17.2652 20.0002 17 20.0002H13V18.0002H19C20.3256 17.9987 21.5964 17.4714 22.5338 16.534C23.4711 15.5967 23.9984 14.3258 24 13.0002V5.00024C23.9984 3.67465 23.4711 2.4038 22.5338 1.46646C21.5964 0.529126 20.3256 0.001832 19 0.000244141ZM19 10.0002H16.035L14.335 12.5552C14.2434 12.6926 14.1192 12.8051 13.9735 12.8827C13.8278 12.9604 13.6651 13.0008 13.5 13.0002C13.479 13.0002 13.458 13.0002 13.438 13.0002C13.263 12.9895 13.094 12.9329 12.9478 12.8362C12.8016 12.7395 12.6834 12.606 12.605 12.4492L10.376 7.98824L9.332 9.55524C9.24065 9.69216 9.11692 9.80441 8.97178 9.88204C8.82665 9.95967 8.66459 10.0003 8.5 10.0002H5C4.73478 10.0002 4.48043 9.89489 4.29289 9.70735C4.10536 9.51981 4 9.26546 4 9.00024C4 8.73503 4.10536 8.48067 4.29289 8.29314C4.48043 8.1056 4.73478 8.00024 5 8.00024H7.965L9.665 5.44524C9.76123 5.29781 9.89516 5.17879 10.0529 5.10055C10.2106 5.0223 10.3864 4.98767 10.562 5.00024C10.737 5.01102 10.906 5.0676 11.0522 5.16431C11.1984 5.26101 11.3166 5.39445 11.395 5.55124L13.624 10.0102L14.668 8.44324C14.7596 8.3067 14.8834 8.19484 15.0285 8.11757C15.1737 8.0403 15.3356 8 15.5 8.00024H19C19.2652 8.00024 19.5196 8.1056 19.7071 8.29314C19.8946 8.48067 20 8.73503 20 9.00024C20 9.26546 19.8946 9.51981 19.7071 9.70735C19.5196 9.89489 19.2652 10.0002 19 10.0002Z" fill="#A5A5A5"/>
</svg>
