<svg width="18" height="24" viewBox="0 0 18 24" fill="none" xmlns="http://www.w3.org/2000/svg">
<path d="M13 2H12.829C12.6214 1.41549 12.2381 0.909511 11.7316 0.551443C11.2251 0.193376 10.6203 0.000756748 10 0L8 0C7.37973 0.000756748 6.77487 0.193376 6.26839 0.551443C5.7619 0.909511 5.37858 1.41549 5.171 2H5C3.67441 2.00159 2.40356 2.52888 1.46622 3.46622C0.528882 4.40356 0.00158786 5.67441 0 7V19C0.00158786 20.3256 0.528882 21.5964 1.46622 22.5338C2.40356 23.4711 3.67441 23.9984 5 24H13C14.3256 23.9984 15.5964 23.4711 16.5338 22.5338C17.4711 21.5964 17.9984 20.3256 18 19V7C17.9984 5.67441 17.4711 4.40356 16.5338 3.46622C15.5964 2.52888 14.3256 2.00159 13 2ZM6 7H8V5C8 4.73478 8.10536 4.48043 8.29289 4.29289C8.48043 4.10536 8.73478 4 9 4C9.26522 4 9.51957 4.10536 9.70711 4.29289C9.89464 4.48043 10 4.73478 10 5V7H12C12.2652 7 12.5196 7.10536 12.7071 7.29289C12.8946 7.48043 13 7.73478 13 8C13 8.26522 12.8946 8.51957 12.7071 8.70711C12.5196 8.89464 12.2652 9 12 9H10V11C10 11.2652 9.89464 11.5196 9.70711 11.7071C9.51957 11.8946 9.26522 12 9 12C8.73478 12 8.48043 11.8946 8.29289 11.7071C8.10536 11.5196 8 11.2652 8 11V9H6C5.73478 9 5.48043 8.89464 5.29289 8.70711C5.10536 8.51957 5 8.26522 5 8C5 7.73478 5.10536 7.48043 5.29289 7.29289C5.48043 7.10536 5.73478 7 6 7ZM9 20H5C4.73478 20 4.48043 19.8946 4.29289 19.7071C4.10536 19.5196 4 19.2652 4 19C4 18.7348 4.10536 18.4804 4.29289 18.2929C4.48043 18.1054 4.73478 18 5 18H9C9.26522 18 9.51957 18.1054 9.70711 18.2929C9.89464 18.4804 10 18.7348 10 19C10 19.2652 9.89464 19.5196 9.70711 19.7071C9.51957 19.8946 9.26522 20 9 20ZM13 16H5C4.73478 16 4.48043 15.8946 4.29289 15.7071C4.10536 15.5196 4 15.2652 4 15C4 14.7348 4.10536 14.4804 4.29289 14.2929C4.48043 14.1054 4.73478 14 5 14H13C13.2652 14 13.5196 14.1054 13.7071 14.2929C13.8946 14.4804 14 14.7348 14 15C14 15.2652 13.8946 15.5196 13.7071 15.7071C13.5196 15.8946 13.2652 16 13 16Z" fill="#4A95E3"/>
</svg>
