<svg width="20" height="21" viewBox="0 0 20 21" fill="none" xmlns="http://www.w3.org/2000/svg">
<path d="M10.0008 1.57839C2.27584 1.57589 -1.59333 10.9142 3.8675 16.3767C5.07981 17.5893 6.6245 18.4152 8.30621 18.7499C9.98793 19.0846 11.7311 18.9131 13.3153 18.257C14.8995 17.6009 16.2536 16.4898 17.2063 15.0641C18.159 13.6384 18.6675 11.9622 18.6675 10.2476C18.6675 5.46089 14.7883 1.58005 10.0008 1.57839ZM5.09167 5.90255C5.50917 3.73755 8.33584 3.15755 9.57167 4.98339C10.8075 6.80839 9.22 9.21839 7.055 8.80172C6.73567 8.74038 6.43156 8.61671 6.16005 8.43779C5.88853 8.25887 5.65493 8.0282 5.4726 7.75896C5.29027 7.48972 5.16278 7.18719 5.09742 6.86866C5.03206 6.55013 5.0301 6.22184 5.09167 5.90255ZM8.69334 13.3926C8.27334 15.5567 5.44584 16.1326 4.2125 14.3059C2.97917 12.4792 4.56834 10.0726 6.73334 10.4901C7.05271 10.5518 7.35678 10.6758 7.62817 10.8551C7.89956 11.0344 8.13295 11.2655 8.31498 11.535C8.49701 11.8046 8.62413 12.1074 8.68905 12.4261C8.75397 12.7449 8.75543 13.0733 8.69334 13.3926ZM9.74334 11.3884C8.78334 11.2026 8.525 9.94922 9.33417 9.39922C10.1425 8.84922 11.2142 9.54922 11.0342 10.5109C11.0075 10.6534 10.9529 10.7892 10.8735 10.9106C10.7941 11.0319 10.6915 11.1364 10.5717 11.2179C10.4518 11.2995 10.3169 11.3565 10.1749 11.3858C10.0329 11.415 9.88653 11.4159 9.74417 11.3884H9.74334ZM14.9083 14.5867C14.4908 16.7517 11.6642 17.3309 10.4283 15.5059C9.19167 13.6801 10.7792 11.2709 12.945 11.6867C13.2644 11.7481 13.5686 11.8717 13.8402 12.0507C14.1118 12.2297 14.3454 12.4605 14.5277 12.7298C14.7101 12.9991 14.8376 13.3017 14.9029 13.6204C14.9682 13.939 14.97 14.2674 14.9083 14.5867ZM13.2692 10.0017C11.1042 9.58422 10.525 6.75505 12.3508 5.51839C14.1758 4.28255 16.585 5.87005 16.1692 8.03505C16.1082 8.35477 15.9848 8.65932 15.806 8.93127C15.6272 9.20322 15.3965 9.43724 15.1271 9.61992C14.8577 9.80259 14.555 9.93035 14.2362 9.99586C13.9174 10.0614 13.5888 10.0634 13.2692 10.0017ZM11.325 19.6367L13.2117 20.1451C14.005 20.3556 14.8494 20.2424 15.5594 19.8305C16.2693 19.4186 16.7866 18.7416 16.9975 17.9484L17.5308 15.9467C16.0293 17.9468 13.7986 19.273 11.3242 19.6367H11.325ZM17.6942 3.24922L15.725 2.72505C16.7201 3.49051 17.5533 4.446 18.1762 5.53608C18.799 6.62615 19.1992 7.82908 19.3533 9.07505L19.895 7.02589C20.1023 6.23316 19.9869 5.3906 19.574 4.68283C19.1612 3.97507 18.4846 3.45984 17.6925 3.25005L17.6942 3.24922ZM0.560004 11.7576L0.10917 13.4576C-0.101331 14.2509 0.011815 15.0953 0.423735 15.8052C0.835656 16.5152 1.51263 17.0324 2.30584 17.2434L4.06167 17.7117C2.18712 16.2379 0.936577 14.112 0.55917 11.7576H0.560004ZM8.63084 0.835053L6.79167 0.355053C6.39858 0.250339 5.9887 0.224125 5.58547 0.27791C5.18224 0.331695 4.79356 0.464423 4.44166 0.668507C4.08976 0.872591 3.78152 1.14403 3.53458 1.46731C3.28764 1.79058 3.10684 2.15936 3.0025 2.55255L2.54334 4.28755C4.0581 2.40225 6.23614 1.16716 8.63167 0.835053H8.63084Z" fill="white"/>
</svg>
