<svg width="20" height="21" viewBox="0 0 20 21" fill="none" xmlns="http://www.w3.org/2000/svg">
<path d="M0.00399812 20.25L1.356 15.282C0.465136 13.7549 -0.00290589 12.018 -1.82655e-06 10.25C-1.82655e-06 4.727 4.477 0.25 10 0.25C15.523 0.25 20 4.727 20 10.25C20 15.773 15.523 20.25 10 20.25C8.23278 20.2529 6.49665 19.7852 4.97 18.895L0.00399812 20.25ZM6.391 5.558C6.26186 5.56602 6.13567 5.60003 6.02 5.658C5.91152 5.71943 5.81249 5.79622 5.726 5.886C5.606 5.999 5.538 6.097 5.465 6.192C5.09541 6.673 4.89661 7.26342 4.9 7.87C4.902 8.36 5.03 8.837 5.23 9.283C5.639 10.185 6.312 11.14 7.201 12.025C7.415 12.238 7.624 12.452 7.849 12.651C8.95239 13.6225 10.2673 14.323 11.689 14.697L12.258 14.784C12.443 14.794 12.628 14.78 12.814 14.771C13.1052 14.756 13.3896 14.6771 13.647 14.54C13.778 14.4725 13.9058 14.3991 14.03 14.32C14.03 14.32 14.073 14.292 14.155 14.23C14.29 14.13 14.373 14.059 14.485 13.942C14.568 13.856 14.64 13.755 14.695 13.64C14.773 13.477 14.851 13.166 14.883 12.907C14.907 12.709 14.9 12.601 14.897 12.534C14.893 12.427 14.804 12.316 14.707 12.269L14.125 12.008C14.125 12.008 13.255 11.629 12.724 11.387C12.668 11.3626 12.608 11.3487 12.547 11.346C12.4786 11.339 12.4094 11.3467 12.3442 11.3686C12.2791 11.3905 12.2193 11.4261 12.169 11.473V11.471C12.164 11.471 12.097 11.528 11.374 12.404C11.3325 12.4598 11.2753 12.5019 11.2098 12.5251C11.1443 12.5482 11.0733 12.5513 11.006 12.534C10.9408 12.5166 10.877 12.4945 10.815 12.468C10.691 12.416 10.648 12.396 10.563 12.359L10.558 12.357C9.98591 12.1072 9.45622 11.7698 8.988 11.357C8.862 11.247 8.745 11.127 8.625 11.011C8.23158 10.6342 7.88871 10.208 7.605 9.743L7.546 9.648C7.50362 9.58416 7.46936 9.5153 7.444 9.443C7.406 9.296 7.505 9.178 7.505 9.178C7.505 9.178 7.748 8.912 7.861 8.768C7.95509 8.64832 8.04287 8.52382 8.124 8.395C8.242 8.205 8.279 8.01 8.217 7.859C7.937 7.175 7.647 6.494 7.349 5.818C7.29 5.684 7.115 5.588 6.956 5.569C6.902 5.563 6.848 5.557 6.794 5.553C6.6597 5.54633 6.52513 5.54766 6.391 5.557V5.558Z" fill="white"/>
</svg>
