<svg width="20" height="20" viewBox="0 0 20 20" fill="none" xmlns="http://www.w3.org/2000/svg">
<path d="M10 7.12579C8.27969 7.12579 6.87579 8.5297 6.87579 10.25C6.87579 11.9703 8.27969 13.3742 10 13.3742C11.7203 13.3742 13.1242 11.9703 13.1242 10.25C13.1242 8.5297 11.7203 7.12579 10 7.12579ZM19.3703 10.25C19.3703 8.95626 19.382 7.67423 19.3094 6.38283C19.2367 4.88283 18.8945 3.55158 17.7977 2.4547C16.6984 1.35548 15.3695 1.01564 13.8695 0.942982C12.5758 0.870326 11.2938 0.882045 10.0023 0.882045C8.7086 0.882045 7.42657 0.870326 6.13516 0.942982C4.63516 1.01564 3.30391 1.35783 2.20704 2.4547C1.10782 3.55392 0.767973 4.88283 0.695317 6.38283C0.622661 7.67658 0.634379 8.95861 0.634379 10.25C0.634379 11.5414 0.622661 12.8258 0.695317 14.1172C0.767973 15.6172 1.11016 16.9485 2.20704 18.0453C3.30625 19.1445 4.63516 19.4844 6.13516 19.557C7.42891 19.6297 8.71094 19.618 10.0023 19.618C11.2961 19.618 12.5781 19.6297 13.8695 19.557C15.3695 19.4844 16.7008 19.1422 17.7977 18.0453C18.8969 16.9461 19.2367 15.6172 19.3094 14.1172C19.3844 12.8258 19.3703 11.5438 19.3703 10.25ZM10 15.057C7.33985 15.057 5.19297 12.9102 5.19297 10.25C5.19297 7.58986 7.33985 5.44298 10 5.44298C12.6602 5.44298 14.807 7.58986 14.807 10.25C14.807 12.9102 12.6602 15.057 10 15.057ZM15.0039 6.36876C14.3828 6.36876 13.8813 5.8672 13.8813 5.24611C13.8813 4.62501 14.3828 4.12345 15.0039 4.12345C15.625 4.12345 16.1266 4.62501 16.1266 5.24611C16.1268 5.39359 16.0978 5.53966 16.0415 5.67595C15.9851 5.81224 15.9024 5.93607 15.7982 6.04036C15.6939 6.14464 15.57 6.22733 15.4338 6.28368C15.2975 6.34004 15.1514 6.36895 15.0039 6.36876Z" fill="white"/>
</svg>
